<svg width="28" height="27" viewBox="0 0 28 27" fill="none" xmlns="http://www.w3.org/2000/svg">
<rect x="1.83545" y="1.21057" width="24.8797" height="24.1053" rx="9" stroke="#7D6E3A" stroke-width="2"/>
<path d="M17.4381 2.82092C18.1426 2.82092 18.759 2.88769 19.2873 3.02122C19.8408 3.13806 20.3188 3.29663 20.7214 3.49692C21.0988 3.69722 21.3881 3.9309 21.5894 4.19796C21.7907 4.46502 21.8913 4.74877 21.8913 5.04922C21.8913 5.43312 21.7026 5.75025 21.3252 6.00062C20.9478 6.25099 20.4698 6.37618 19.8911 6.37618C19.3376 6.37618 18.847 6.25934 18.4193 6.02566C18.0168 5.77529 17.8155 5.44147 17.8155 5.02418C17.8155 4.67366 17.9539 4.38991 18.2306 4.17292C18.3675 4.07455 18.5225 3.99161 18.6955 3.92412C19.0287 3.7942 19.1386 3.47642 18.7967 3.37174V3.37174C18.4948 3.2549 18.0797 3.19648 17.5513 3.19648C16.9727 3.19648 16.4695 3.27994 16.0418 3.44685C15.6392 3.61376 15.3247 3.8391 15.0983 4.12285C14.7964 4.47337 14.6077 4.99914 14.5322 5.70018C14.4567 6.38453 14.419 7.44443 14.419 8.87988V8.87988C14.419 9.2394 14.7105 9.53084 15.07 9.53084H18.2067C18.345 9.53084 18.4571 9.64294 18.4571 9.78121V9.78121C18.4571 9.91949 18.345 10.0316 18.2067 10.0316H16.438C15.323 10.0316 14.419 10.9355 14.419 12.0506V19.8211C14.419 20.6389 14.7712 21.1897 15.4757 21.4735C16.1534 21.7216 17.0482 21.8544 18.1601 21.8721C18.3032 21.8743 18.4193 21.9901 18.4193 22.1332V22.1332C18.4193 22.2792 18.2989 22.3964 18.1529 22.3926C17.5988 22.3783 16.87 22.3641 15.9663 22.3498C14.9096 22.3164 13.79 22.2997 12.6075 22.2997C11.7521 22.2997 10.8967 22.3164 10.0413 22.3498C9.37001 22.3633 8.83029 22.3768 8.42215 22.3903C8.27593 22.3951 8.15437 22.2782 8.15437 22.1319V22.1319C8.15437 21.9895 8.26996 21.8745 8.41229 21.8714C9.30843 21.8518 9.95208 21.7275 10.3432 21.4985C10.7961 21.2482 11.0225 20.7725 11.0225 20.0714V11.5411C11.0225 10.7074 10.3467 10.0316 9.51297 10.0316H8.25379C8.11551 10.0316 8.00342 9.91949 8.00342 9.78121V9.78121C8.00342 9.64294 8.11551 9.53084 8.25379 9.53084H9.51297C10.3467 9.53084 11.0093 8.85345 11.0819 8.02291C11.1129 7.66879 11.156 7.34521 11.2112 7.05218C11.337 6.38453 11.5383 5.81702 11.815 5.34966C12.0918 4.86561 12.4692 4.43998 12.9472 4.07277C13.4504 3.68887 14.0919 3.38843 14.8719 3.17144C15.6518 2.93776 16.5072 2.82092 17.4381 2.82092Z" fill="#7D6E3A"/>
</svg>
