<svg width="95" height="16" viewBox="0 0 95 16" fill="none" xmlns="http://www.w3.org/2000/svg">
<path d="M33.3914 8.90408C33.0382 8.87624 32.7045 8.97455 29.9584 9.92027C27.4376 10.7887 23.9536 12.0438 22.5391 12.5933C22.1839 12.7312 21.8877 12.8328 21.8789 12.8237C21.8672 12.8116 21.8606 12.7253 21.858 12.6256C21.8514 12.3097 21.6217 11.9939 21.2264 11.755C20.6745 11.4169 20.004 11.2482 19.286 11.2689C17.8001 11.3034 16.9032 12.0498 17.3654 12.8697C17.7347 13.5322 19.0746 13.9303 20.3628 13.7543C20.7212 13.7079 20.9547 13.648 21.7425 13.3899C22.7651 13.0554 23.3854 12.8104 25.262 11.9857C26.5809 11.4086 26.8425 11.3068 26.8865 11.3521C26.9746 11.4427 26.8999 11.8428 26.747 12.1005C26.4156 12.6692 25.7606 13.1434 24.812 13.5009C24.4281 13.6447 24.1231 13.7371 23.8684 13.7842C23.5148 13.8531 23.489 13.862 23.5389 13.9133C23.6329 14.0099 24.7394 13.7795 25.6472 13.4682C26.8768 13.0465 27.4364 12.6332 28.3856 11.446C28.812 10.9133 28.9172 10.8007 28.9892 10.8042C29.0109 10.8089 29.0639 10.9075 29.0998 11.024C29.3135 11.756 28.598 12.6536 27.2879 13.284C26.7286 13.5563 26.3616 13.6822 25.7264 13.8235C25.4583 13.8832 25.2253 13.9349 25.2189 13.9372C25.2189 13.9372 25.2517 13.9621 25.3033 13.9887C25.3942 14.0381 25.4545 14.0295 26.4323 13.8432C26.5915 13.8127 27.037 13.6881 27.4221 13.5722C28.9282 13.1081 29.6446 12.6087 30.7299 11.2703C31.6294 10.1646 31.9469 9.89065 32.9052 9.39292C33.6125 9.02555 33.7037 8.9339 33.3914 8.90408Z" fill="#4E3855"/>
<path d="M11.9232 13.3537C11.7056 13.4197 11.4576 13.3547 9.36977 12.681C7.45313 12.0622 4.78542 11.1509 3.68875 10.7403C3.41336 10.6372 3.18835 10.565 3.18578 10.5752C3.18235 10.5887 3.20751 10.6775 3.23988 10.7796C3.34334 11.1027 3.30333 11.4494 3.13064 11.7352C2.89113 12.139 2.51763 12.3823 2.04894 12.4374C1.08194 12.5599 0.250905 11.8933 0.268508 11.0074C0.280049 10.292 1.00566 9.74338 1.89382 9.78628C2.14002 9.79558 2.31062 9.83199 2.90507 10.0118C3.67648 10.2447 4.15878 10.4288 5.64636 11.0714C6.69103 11.5204 6.8939 11.5965 6.90676 11.5456C6.93249 11.4438 6.74809 11.0434 6.56192 10.7965C6.15499 10.2513 5.57225 9.83682 4.84048 9.57261C4.54467 9.46666 4.31709 9.40462 4.13731 9.38361C3.88647 9.3508 3.8669 9.34452 3.88148 9.28683C3.90892 9.17823 4.69884 9.296 5.38855 9.51736C6.32284 9.81722 6.82354 10.1797 7.83846 11.2906C8.29421 11.7891 8.40021 11.8928 8.44535 11.8816C8.4577 11.8746 8.45811 11.7683 8.44153 11.6456C8.32932 10.8758 7.56329 10.0356 6.50617 9.53118C6.05373 9.31259 5.77491 9.2231 5.31838 9.14629C5.12564 9.11378 4.95821 9.08573 4.95332 9.08416C4.95332 9.08416 4.96593 9.05518 4.99004 9.02256C5.03165 8.96254 5.07335 8.96492 5.76544 9.05129C5.8782 9.06546 6.20705 9.14532 6.49419 9.2228C7.62061 9.53663 8.25141 9.97023 9.40546 11.2212C10.3607 12.2542 10.6582 12.5001 11.444 12.9064C12.0239 13.2063 12.1138 13.2902 11.9232 13.3537Z" fill="#4E3855"/>
<path d="M45.6765 6.78121C45.5025 6.36965 44.9546 5.99637 44.0586 5.66616C43.415 5.43167 41.9537 5.05839 41.1186 4.91003C39.6747 4.6564 39.205 4.61811 37.6393 4.6229C36.2476 4.6229 36.0301 4.63725 33.9947 4.85261C32.8031 4.97225 31.8028 5.05839 31.768 5.03925C31.7332 5.0201 30.6459 4.29269 29.3585 3.42171C28.0625 2.55552 26.7404 1.70368 26.4098 1.53139C24.5832 0.583844 21.878 0 19.3381 0C16.5982 0.00478561 14.2061 0.6652 12.5361 1.87596C11.9185 2.33059 11.153 3.16807 10.8486 3.7232C10.5877 4.21612 10.3702 4.99139 10.3702 5.45559C10.3702 5.82409 10.5877 6.72378 10.7181 6.9152C10.7616 6.9822 10.7703 7.03963 10.7355 7.05399C10.6051 7.09706 7.69983 7.36984 7.06486 7.39855C5.69053 7.46076 4.48147 7.20234 3.45507 6.62807C2.794 6.25958 2.21122 5.70445 1.97637 5.21631C1.8024 4.86696 1.73281 4.24483 1.8285 3.94813L1.89808 3.70885L2.16773 4.00077C2.50696 4.35969 3.25501 4.74732 3.8117 4.85261C4.44668 4.97225 5.36 4.9531 5.90799 4.81432C8.20433 4.22569 8.21303 2.26359 5.91669 1.63189C5.47307 1.50747 5.28171 1.48354 4.76851 1.48354C3.8378 1.48354 3.38549 1.58882 2.70702 1.96689C1.64583 2.5603 1.15873 3.24943 1.08914 4.23526C1.04565 4.76647 1.07175 4.92439 1.22831 5.26417C1.73282 6.37922 3.08105 7.27413 4.89029 7.69047C5.42088 7.8149 5.54266 7.81968 6.71693 7.81968C7.71723 7.81968 8.22173 7.79576 9.15245 7.69526C9.79612 7.62826 10.492 7.55648 10.692 7.53733L11.0661 7.50383L11.2748 7.77183C11.7793 8.39874 12.7448 9.09744 13.6147 9.45158C14.7976 9.94449 15.9632 10.1598 17.4158 10.1598C18.8336 10.1646 19.9992 9.95407 21.0691 9.49943C22.4173 8.92516 23.148 8.12118 23.348 6.97263C23.4002 6.652 23.4611 6.37922 23.4698 6.36965C23.4872 6.36007 24.6615 6.24043 26.0793 6.10165L28.6627 5.84801L29.5586 6.34093C31.7071 7.52298 33.8382 8.21689 36.3346 8.55667C37.3001 8.68588 39.7791 8.67152 41.0316 8.52317C43.4932 8.23603 45.1981 7.79576 45.5982 7.34591C45.7896 7.13056 45.7983 7.05877 45.6765 6.78121ZM42.0319 7.5804C41.8754 7.81011 41.3448 8.07811 40.8403 8.18339C39.4398 8.47053 37.9959 8.30303 36.465 7.67612C35.2212 7.16406 32.5247 5.59438 32.7074 5.49388C32.8031 5.44124 34.3688 5.26417 35.63 5.16846C37.0043 5.06317 38.4482 5.20196 39.7008 5.56088C40.5358 5.79537 41.6231 6.36007 41.9189 6.69985C42.1276 6.93435 42.1798 7.36984 42.0319 7.5804ZM27.271 5.52259C25.6879 5.6853 24.1396 5.83366 23.7221 5.86237L23.2784 5.89587L23.0697 5.49866C22.4521 4.31662 21.0604 3.48871 19.2772 3.23507C18.2421 3.08672 17.0331 3.1585 16.1285 3.41692L15.7196 3.53656L16.1198 3.54135C17.6594 3.54614 19.1816 4.02948 19.9209 4.74254C20.4602 5.26895 20.9038 6.17343 20.6255 6.17343C20.5559 6.17343 20.0775 6.21651 19.5469 6.26915C16.5286 6.57064 11.7445 6.99177 11.6315 6.97263C11.5706 6.95827 11.4053 6.76685 11.2748 6.54671C11.0487 6.17822 11.0313 6.09687 11.0313 5.33595C11.0226 4.36447 11.153 4.06298 11.8924 3.23029C13.7886 1.12462 17.6768 0.421134 21.33 1.51704C23.1654 2.0626 24.3396 2.71823 26.836 4.5559C27.3927 4.96746 27.8972 5.3216 27.9407 5.33595C28.1408 5.40295 27.9842 5.44602 27.271 5.52259ZM20.5472 7.36984C19.8513 8.67631 17.2766 9.53772 15.2325 9.15008C14.2496 8.95866 13.2058 8.47531 12.4491 7.86275C12.0055 7.50383 11.9446 7.41769 12.136 7.41769C12.2229 7.41769 13.7016 7.2837 19.112 6.77642C19.8339 6.70942 20.5037 6.64242 20.6168 6.62807C20.8168 6.59935 20.8168 6.60893 20.7646 6.82906C20.7386 6.95349 20.6342 7.19756 20.5472 7.36984Z" fill="#4E3855"/>
<path d="M72.3909 8.58802C72.2707 8.86651 71.8922 9.11908 71.2734 9.34252C70.8288 9.50119 69.8195 9.75376 69.2427 9.85415C68.2454 10.0258 67.921 10.0517 66.8395 10.0484C65.8783 10.0484 65.7281 10.0387 64.3222 9.89301C63.4991 9.81205 62.8082 9.75376 62.7842 9.76672C62.7601 9.77967 62.0091 10.2719 61.1199 10.8612C60.2248 11.4473 59.3115 12.0237 59.0832 12.1403C57.8216 12.7815 55.9531 13.1765 54.1988 13.1765C52.3063 13.1733 50.6541 12.7264 49.5005 11.9071C49.074 11.5995 48.5453 11.0328 48.335 10.6572C48.1548 10.3237 48.0046 9.7991 48.0046 9.485C48.0046 9.23566 48.1548 8.62688 48.2449 8.49735C48.2749 8.45202 48.2809 8.41316 48.2569 8.40345C48.1668 8.3743 46.1601 8.18973 45.7215 8.1703C44.7723 8.1282 43.9372 8.30306 43.2282 8.69164C42.7716 8.94098 42.3691 9.31661 42.2069 9.6469C42.0867 9.88329 42.0387 10.3043 42.1047 10.505L42.1528 10.6669L42.339 10.4694C42.5734 10.2265 43.09 9.96425 43.4746 9.89301C43.9131 9.81205 44.544 9.825 44.9225 9.91891C46.5086 10.3172 46.5146 11.6449 44.9285 12.0723C44.6221 12.1565 44.4899 12.1727 44.1354 12.1727C43.4926 12.1727 43.1802 12.1014 42.7115 11.8456C41.9786 11.4441 41.6421 10.9778 41.5941 10.3107C41.564 9.95129 41.582 9.84443 41.6902 9.61452C42.0387 8.86003 42.9699 8.25449 44.2195 7.97277C44.586 7.88858 44.6701 7.88534 45.4812 7.88534C46.1721 7.88534 46.5206 7.90153 47.1634 7.96953C47.608 8.01487 48.0887 8.06344 48.2269 8.07639L48.4852 8.09906L48.6294 7.91772C48.9778 7.49352 49.6447 7.02075 50.2455 6.78112C51.0626 6.44759 51.8677 6.30187 52.871 6.30187C53.8503 6.29863 54.6554 6.44111 55.3944 6.74874C56.3256 7.13732 56.8303 7.68133 56.9684 8.4585C57.0045 8.67545 57.0465 8.86003 57.0526 8.86651C57.0646 8.87298 57.8756 8.95394 58.8549 9.04784L60.6393 9.21947L61.2581 8.88593C62.7421 8.08611 64.214 7.61657 65.9383 7.38666C66.6052 7.29923 68.3175 7.30894 69.1826 7.40933C70.8829 7.60362 72.0604 7.90153 72.3368 8.20592C72.469 8.35164 72.475 8.40021 72.3909 8.58802ZM69.8736 8.04725C69.7654 7.89182 69.3989 7.71048 69.0505 7.63924C68.0832 7.44495 67.0859 7.55828 66.0285 7.98248C65.1693 8.32897 63.3068 9.39109 63.433 9.45909C63.4991 9.49471 64.5805 9.61452 65.4517 9.67929C66.4009 9.75053 67.3983 9.65662 68.2634 9.41376C68.8402 9.25509 69.5912 8.87298 69.7954 8.64307C69.9396 8.4844 69.9757 8.18973 69.8736 8.04725ZM59.678 9.43966C58.5846 9.32956 57.5152 9.22918 57.2268 9.20975L56.9204 9.18708L56.7762 9.45585C56.3496 10.2557 55.3883 10.8159 54.1567 10.9875C53.4418 11.0879 52.6067 11.0393 51.9818 10.8645L51.6995 10.7835L51.9758 10.7803C53.0392 10.777 54.0906 10.45 54.6013 9.96748C54.9738 9.61128 55.2802 8.99927 55.0879 8.99927C55.0399 8.99927 54.7094 8.97013 54.343 8.93451C52.2582 8.7305 48.9538 8.44554 48.8757 8.4585C48.8337 8.46821 48.7195 8.59774 48.6294 8.74669C48.4732 8.99603 48.4612 9.05108 48.4612 9.56595C48.4552 10.2233 48.5453 10.4273 49.056 10.9907C50.3657 12.4155 53.0512 12.8916 55.5746 12.15C56.8423 11.7809 57.6533 11.3372 59.3776 10.0938C59.7621 9.81529 60.1106 9.57566 60.1406 9.56595C60.2788 9.52062 60.1707 9.49147 59.678 9.43966ZM55.0339 8.18973C54.5532 7.30571 52.7749 6.72283 51.363 6.98513C50.6841 7.11465 49.9632 7.44171 49.4405 7.85619C49.1341 8.09906 49.092 8.15735 49.2242 8.15735C49.2843 8.15735 50.3056 8.24801 54.0426 8.59126C54.5412 8.63659 55.0038 8.68193 55.0819 8.69164C55.2201 8.71107 55.2201 8.7046 55.1841 8.55564C55.1661 8.47145 55.094 8.3063 55.0339 8.18973Z" fill="#4E3855"/>
<path d="M72.3909 8.58802C72.2707 8.86651 71.8922 9.11908 71.2734 9.34252C70.8288 9.50119 69.8195 9.75376 69.2427 9.85415C68.2454 10.0258 67.921 10.0517 66.8395 10.0484C65.8783 10.0484 65.7281 10.0387 64.3222 9.89301C63.4991 9.81205 62.8082 9.75376 62.7842 9.76672C62.7601 9.77967 62.0091 10.2719 61.1199 10.8612C60.2248 11.4473 59.3115 12.0237 59.0832 12.1403C57.8216 12.7815 55.9531 13.1765 54.1988 13.1765C52.3063 13.1733 50.6541 12.7264 49.5005 11.9071C49.074 11.5995 48.5453 11.0328 48.335 10.6572C48.1548 10.3237 48.0046 9.7991 48.0046 9.485C48.0046 9.23566 48.1548 8.62688 48.2449 8.49735C48.2749 8.45202 48.2809 8.41316 48.2569 8.40345C48.1668 8.3743 46.1601 8.18973 45.7215 8.1703C44.7723 8.1282 43.9372 8.30306 43.2282 8.69164C42.7716 8.94098 42.3691 9.31661 42.2069 9.6469C42.0867 9.88329 42.0387 10.3043 42.1047 10.505L42.1528 10.6669L42.339 10.4694C42.5734 10.2265 43.09 9.96425 43.4746 9.89301C43.9131 9.81205 44.544 9.825 44.9225 9.91891C46.5086 10.3172 46.5146 11.6449 44.9285 12.0723C44.6221 12.1565 44.4899 12.1727 44.1354 12.1727C43.4926 12.1727 43.1802 12.1014 42.7115 11.8456C41.9786 11.4441 41.6421 10.9778 41.5941 10.3107C41.564 9.95129 41.582 9.84443 41.6902 9.61452C42.0387 8.86003 42.9699 8.25449 44.2195 7.97277C44.586 7.88858 44.6701 7.88534 45.4812 7.88534C46.1721 7.88534 46.5206 7.90153 47.1634 7.96953C47.608 8.01487 48.0887 8.06344 48.2269 8.07639L48.4852 8.09906L48.6294 7.91772C48.9778 7.49352 49.6447 7.02075 50.2455 6.78112C51.0626 6.44759 51.8677 6.30187 52.871 6.30187C53.8503 6.29863 54.6554 6.44111 55.3944 6.74874C56.3256 7.13732 56.8303 7.68133 56.9684 8.4585C57.0045 8.67545 57.0465 8.86003 57.0526 8.86651C57.0646 8.87298 57.8756 8.95394 58.8549 9.04784L60.6393 9.21947L61.2581 8.88593C62.7421 8.08611 64.214 7.61657 65.9383 7.38666C66.6052 7.29923 68.3175 7.30894 69.1826 7.40933C70.8829 7.60362 72.0604 7.90153 72.3368 8.20592C72.469 8.35164 72.475 8.40021 72.3909 8.58802ZM69.8736 8.04725C69.7654 7.89182 69.3989 7.71048 69.0505 7.63924C68.0832 7.44495 67.0859 7.55828 66.0285 7.98248C65.1693 8.32897 63.3068 9.39109 63.433 9.45909C63.4991 9.49471 64.5805 9.61452 65.4517 9.67929C66.4009 9.75053 67.3983 9.65662 68.2634 9.41376C68.8402 9.25509 69.5912 8.87298 69.7954 8.64307C69.9396 8.4844 69.9757 8.18973 69.8736 8.04725ZM59.678 9.43966C58.5846 9.32956 57.5152 9.22918 57.2268 9.20975L56.9204 9.18708L56.7762 9.45585C56.3496 10.2557 55.3883 10.8159 54.1567 10.9875C53.4418 11.0879 52.6067 11.0393 51.9818 10.8645L51.6995 10.7835L51.9758 10.7803C53.0392 10.777 54.0906 10.45 54.6013 9.96748C54.9738 9.61128 55.2802 8.99927 55.0879 8.99927C55.0399 8.99927 54.7094 8.97013 54.343 8.93451C52.2582 8.7305 48.9538 8.44554 48.8757 8.4585C48.8337 8.46821 48.7195 8.59774 48.6294 8.74669C48.4732 8.99603 48.4612 9.05108 48.4612 9.56595C48.4552 10.2233 48.5453 10.4273 49.056 10.9907C50.3657 12.4155 53.0512 12.8916 55.5746 12.15C56.8423 11.7809 57.6533 11.3372 59.3776 10.0938C59.7621 9.81529 60.1106 9.57566 60.1406 9.56595C60.2788 9.52062 60.1707 9.49147 59.678 9.43966ZM55.0339 8.18973C54.5532 7.30571 52.7749 6.72283 51.363 6.98513C50.6841 7.11465 49.9632 7.44171 49.4405 7.85619C49.1341 8.09906 49.092 8.15735 49.2242 8.15735C49.2843 8.15735 50.3056 8.24801 54.0426 8.59126C54.5412 8.63659 55.0038 8.68193 55.0819 8.69164C55.2201 8.71107 55.2201 8.7046 55.1841 8.55564C55.1661 8.47145 55.094 8.3063 55.0339 8.18973Z" fill="#4E3855"/>
<path d="M94.5101 4.26494C94.3606 4.06603 94.0111 3.91699 93.4768 3.81821C93.0933 3.74865 92.2435 3.67304 91.7665 3.66343C90.9421 3.64831 90.6798 3.66626 89.8228 3.79461C89.0604 3.9065 88.9432 3.9314 87.8566 4.20644C87.2196 4.36413 86.683 4.48911 86.6614 4.482C86.6399 4.4749 85.9483 4.18602 85.1282 3.83897C84.304 3.49509 83.4674 3.16073 83.2636 3.09818C82.138 2.75487 80.5791 2.67033 79.1878 2.87452C77.6875 3.09728 76.4643 3.6312 75.7092 4.39178C75.4308 4.67661 75.122 5.17137 75.0285 5.48301C74.9506 5.75897 74.9337 6.17749 74.995 6.41762C75.0436 6.60823 75.2814 7.05615 75.3781 7.14469C75.4108 7.17585 75.4231 7.20486 75.4059 7.21508C75.3401 7.24785 73.7847 7.62252 73.4406 7.68842C72.696 7.83109 71.9996 7.79461 71.3616 7.58006C70.9509 7.44259 70.5584 7.20227 70.3654 6.96865C70.224 6.80192 70.1038 6.48569 70.1171 6.32452L70.1236 6.19514L70.3098 6.32447C70.543 6.48287 71.0039 6.62325 71.3228 6.63296C71.6864 6.6438 72.1841 6.56047 72.466 6.44463C73.6463 5.95552 73.3922 4.93985 72.051 4.79769C71.7915 4.76898 71.6836 4.77199 71.4024 4.81325C70.8926 4.88807 70.6587 4.9789 70.3369 5.22901C69.8339 5.62129 69.658 6.01693 69.7499 6.53249C69.7962 6.81077 69.8313 6.89037 69.9619 7.05354C70.3854 7.58979 71.242 7.94433 72.288 8.01425C72.595 8.03596 72.6624 8.02864 73.3056 7.93424C73.8536 7.85382 74.1268 7.80088 74.6233 7.67407C74.9671 7.58767 75.3388 7.49459 75.4459 7.46861L75.6463 7.42121L75.796 7.54306C76.1551 7.8268 76.7762 8.1106 77.2994 8.22387C78.0124 8.38375 78.6793 8.40144 79.475 8.28466C80.2523 8.17315 80.863 7.97052 81.3891 7.64933C82.0519 7.24388 82.3461 6.76925 82.3042 6.15903C82.2905 5.98897 82.2878 5.84297 82.2913 5.83732C82.2996 5.83097 82.9271 5.67468 83.6854 5.48891L85.0671 5.15001L85.6229 5.33297C86.9557 5.77171 88.2146 5.95934 89.627 5.93441C90.1729 5.92362 91.529 5.7169 92.1955 5.53946C93.5061 5.19303 94.3819 4.82822 94.5418 4.56335C94.6182 4.43657 94.6135 4.39874 94.5101 4.26494ZM92.6191 4.97136C92.5637 5.10277 92.3084 5.28406 92.0459 5.37908C91.3166 5.6402 90.5036 5.66964 89.5823 5.46841C88.8334 5.30353 87.1492 4.70833 87.236 4.64166C87.2815 4.60673 88.1158 4.38926 88.7941 4.23836C89.533 4.07341 90.3423 4.02912 91.0757 4.11409C91.5641 4.16826 92.2342 4.37296 92.441 4.52495C92.5863 4.62947 92.6723 4.85055 92.6191 4.97136ZM84.2618 5.09356C83.4161 5.305 82.5875 5.50622 82.3626 5.55463L82.124 5.60763L81.9572 5.41894C81.463 4.85713 80.5914 4.54074 79.5812 4.55289C78.9946 4.55936 78.3418 4.6937 77.8803 4.9001L77.6722 4.99486L77.892 4.96517C78.736 4.84387 79.6336 4.97153 80.1326 5.28094C80.4975 5.5099 80.8598 5.94211 80.7073 5.96449C80.6692 5.97008 80.4128 6.03083 80.1291 6.10071C78.5155 6.49932 75.9504 7.10178 75.886 7.10097C75.8507 7.09844 75.7349 7.0127 75.6344 6.90932C75.4619 6.73688 75.4417 6.69619 75.3413 6.30258C75.2084 5.80074 75.2401 5.63429 75.5352 5.14411C76.2962 3.90242 78.3332 3.22594 80.479 3.49914C81.5564 3.6338 82.2861 3.87855 83.896 4.62846C84.2553 4.79661 84.5783 4.93924 84.6041 4.94317C84.7225 4.96174 84.6424 4.99661 84.2618 5.09356ZM80.8223 6.58967C80.6135 7.32144 79.3167 7.97403 78.1458 7.93784C77.5822 7.91784 76.9466 7.75172 76.4513 7.49569C76.1609 7.34569 76.1162 7.30602 76.221 7.29064C76.2687 7.28364 77.061 7.09545 79.9578 6.39809C80.3445 6.30539 80.7025 6.21688 80.7626 6.20037C80.8684 6.16943 80.8696 6.17438 80.8701 6.29245C80.8722 6.35891 80.8472 6.49356 80.8223 6.58967Z" fill="#4E3855"/>
</svg>
