<svg width="419" height="452" viewBox="0 0 419 452" fill="none" xmlns="http://www.w3.org/2000/svg">
<path d="M229.055 22.7293C228.973 23.0313 228.028 22.9306 227.33 21.4211C227.042 20.6663 226.837 19.66 227.001 18.5027C227.124 17.3454 227.823 15.9365 229.014 15.3327C230.164 14.6785 231.561 14.7289 232.793 15.4333C234.025 16.0874 235.134 17.7479 235.34 19.509C235.586 21.3205 235.217 23.1822 234.313 24.6414C233.409 26.1509 232.013 27.0567 230.616 27.3586C229.219 27.7108 227.699 27.4089 226.508 26.7548C225.276 26.1006 224.249 25.2452 223.263 24.5408C221.332 22.9809 219.278 22.1758 217.594 23.0816C215.91 23.8363 214.883 25.3962 214.431 26.6038C214.184 27.2076 214.102 27.7108 214.02 28.063C213.979 28.4152 213.938 28.6165 213.938 28.6165C213.938 28.6165 213.938 28.4152 213.938 28.063C213.979 27.7108 214.02 27.1573 214.226 26.5032C214.554 25.2452 215.499 23.3835 217.306 22.3268C218.21 21.7733 219.36 21.5217 220.511 21.7733C221.661 21.9746 222.77 22.5784 223.838 23.2325C225.933 24.5911 228.11 26.0503 230.246 25.2956C231.273 24.9936 232.218 24.2389 232.752 23.2828C233.286 22.2765 233.491 21.0186 233.327 20.0122C233.081 17.8485 230.986 16.9428 229.835 17.5969C228.644 18.1001 228.439 19.9619 228.603 20.9179C228.726 21.8739 229.219 22.3771 229.055 22.7293Z" fill="#7D6E3A"/>
<path d="M241.912 31.0314C241.83 31.3334 240.433 30.8805 239.653 28.3143C239.324 27.1067 239.201 25.3455 239.982 23.6347C240.721 21.9743 242.241 20.5151 244.213 20.2635C246.226 19.9616 248.362 21.4208 249.471 23.6347C250.621 25.7481 251.032 28.8678 250.087 31.4843C249.224 34.1008 247.417 36.1135 245.322 37.3212C243.227 38.5288 240.885 38.8307 238.667 38.5288C234.148 37.925 230.246 34.9562 227.124 31.9875C225.522 30.4779 224.125 28.8678 222.646 27.6602C221.209 26.4525 219.607 25.6978 218.087 25.8487C216.567 25.9494 215.334 27.0564 214.8 28.3646C214.225 29.7232 214.513 31.1824 215.129 31.9875C215.745 32.8429 216.444 33.1448 216.937 33.1448C217.429 33.1951 217.676 33.0442 217.676 33.0442C217.676 33.0442 217.429 33.1951 216.937 33.1951C216.444 33.1951 215.663 32.9435 215.006 32.0881C214.308 31.283 213.897 29.6729 214.472 28.113C215.006 26.6035 216.361 25.1946 218.046 24.9933C219.73 24.7417 221.578 25.4462 223.18 26.6538C224.783 27.8614 226.261 29.371 227.863 30.7295C231.068 33.497 234.806 36.0129 238.831 36.3651C240.803 36.5664 242.816 36.2142 244.5 35.1575C246.184 34.1511 247.581 32.4403 248.197 30.5283C248.855 28.6162 248.526 26.5532 247.745 24.9933C246.924 23.4335 245.609 22.5278 244.418 22.6787C243.186 22.7794 242.077 23.6851 241.543 24.7417C240.967 25.7481 240.926 27.006 241.05 27.9621C241.255 29.9245 242.118 30.7295 241.912 31.0314Z" fill="#7D6E3A"/>
<path d="M214.39 7.73421C214.102 7.78453 213.774 7.28135 213.692 6.12405C213.65 5.01706 213.979 3.30627 215.211 1.94769C216.444 0.589118 218.539 -0.115335 220.511 0.8407C222.482 1.79674 223.715 4.2623 224.002 6.67755C224.29 9.19343 223.591 11.5583 222.688 13.3698C221.743 15.1812 220.634 16.5901 219.607 17.6971C217.553 19.8608 215.91 20.7665 215.91 20.7665C215.91 20.7665 217.389 19.5085 219.155 17.0933C220.018 15.8857 220.921 14.3761 221.62 12.615C222.277 10.9042 222.647 8.8412 222.318 7.02977C221.989 5.21833 221.004 3.60817 219.812 3.15531C218.662 2.65213 217.306 3.05467 216.567 3.75911C214.842 5.36928 214.965 7.63358 214.39 7.73421Z" fill="#7D6E3A"/>
<path d="M198.41 22.7282C198.246 22.376 198.698 21.8728 198.862 20.8161C199.026 19.8601 198.78 17.9983 197.63 17.4952C196.48 16.8913 194.385 17.7971 194.138 19.9104C193.974 20.9671 194.179 22.225 194.713 23.181C195.247 24.1371 196.151 24.8918 197.219 25.1937C199.355 25.9485 201.532 24.4893 203.627 23.1307C204.695 22.4766 205.804 21.8728 206.955 21.6715C208.105 21.4702 209.255 21.6715 210.159 22.225C211.966 23.2817 212.911 25.0931 213.24 26.4014C213.404 27.0555 213.486 27.5587 213.486 27.9612C213.486 28.3134 213.486 28.5147 213.486 28.5147C213.486 28.5147 213.445 28.3134 213.404 27.9612C213.363 27.609 213.24 27.1058 212.993 26.502C212.541 25.3447 211.514 23.7345 209.83 22.9798C208.146 22.1244 206.092 22.9294 204.161 24.439C203.175 25.1937 202.148 26.0492 200.916 26.653C199.684 27.3071 198.205 27.609 196.808 27.2568C195.411 26.9549 194.015 26.0491 193.111 24.5396C192.207 23.0301 191.838 21.1683 192.084 19.4072C192.29 17.5958 193.358 15.9856 194.631 15.3315C195.863 14.6271 197.26 14.5767 198.41 15.2309C199.602 15.885 200.259 17.2939 200.423 18.4009C200.628 19.5582 200.423 20.6148 200.094 21.3193C199.437 22.9295 198.492 23.0301 198.41 22.7282Z" fill="#7D6E3A"/>
<path d="M185.553 31.0309C185.347 30.729 186.21 29.8736 186.497 27.9112C186.621 26.9551 186.58 25.7475 186.004 24.6908C185.47 23.6342 184.361 22.7285 183.129 22.6278C181.897 22.5272 180.623 23.3826 179.802 24.9424C178.98 26.5023 178.693 28.6156 179.35 30.4774C179.966 32.3894 181.322 34.0499 183.047 35.1066C184.731 36.1633 186.744 36.5155 188.716 36.3142C192.741 35.962 196.48 33.4461 199.684 30.6787C201.286 29.3201 202.765 27.8105 204.367 26.6029C205.969 25.3953 207.817 24.6909 209.501 24.9424C211.186 25.1437 212.582 26.5526 213.075 28.0621C213.65 29.622 213.24 31.2825 212.541 32.0372C211.884 32.8926 211.103 33.1442 210.611 33.1442C210.118 33.1442 209.871 32.9933 209.871 32.9933C209.871 32.9933 210.118 33.1442 210.611 33.0939C211.103 33.0939 211.843 32.7417 212.418 31.9366C213.034 31.1315 213.322 29.6723 212.747 28.3137C212.213 26.9551 210.98 25.8481 209.46 25.7978C207.94 25.6469 206.338 26.4016 204.901 27.6093C203.463 28.8169 202.025 30.4774 200.423 31.9366C197.301 34.9053 193.399 37.8741 188.88 38.4779C186.662 38.7798 184.32 38.4779 182.225 37.2703C180.171 36.1129 178.364 34.1002 177.46 31.4334C176.515 28.8169 176.926 25.6972 178.076 23.5839C179.185 21.3699 181.322 19.9107 183.334 20.2126C185.306 20.4642 186.785 21.9234 187.565 23.5839C188.346 25.2947 188.223 27.1061 187.894 28.2634C186.99 30.8799 185.594 31.3328 185.553 31.0309Z" fill="#7D6E3A"/>
<path d="M213.075 7.73481C212.5 7.68449 212.623 5.4202 210.98 3.81004C210.2 3.05527 208.885 2.65274 207.694 3.20623C206.503 3.70941 205.517 5.26924 205.188 7.08067C204.819 8.89211 205.188 10.9048 205.887 12.6659C206.544 14.427 207.489 15.9366 208.351 17.1442C210.077 19.5594 211.597 20.8174 211.597 20.8174C211.597 20.8174 209.953 19.9117 207.899 17.748C206.872 16.641 205.763 15.2825 204.819 13.4207C203.915 11.6093 203.216 9.24433 203.504 6.72845C203.751 4.3132 204.983 1.84764 206.996 0.891603C208.967 -0.0644317 211.062 0.640021 212.295 1.9986C213.527 3.40749 213.856 5.1183 213.815 6.17497C213.692 7.23164 213.363 7.78512 213.075 7.73481Z" fill="#7D6E3A"/>
<path d="M249.611 39.4251C249.481 38.9324 253.337 37.5663 259.205 38.3632C262.108 38.7392 265.456 39.6788 268.807 41.4239C272.126 43.1465 275.456 45.5796 278.241 48.6849C281.097 51.7401 283.187 55.464 285.16 58.754C287.164 62.0665 289.22 64.9625 291.527 66.83C293.763 68.7476 296.083 69.6195 297.692 69.843C298.513 69.9659 299.141 69.954 299.601 69.9248C300.029 69.873 300.269 69.8403 300.269 69.8403C300.269 69.8403 300.029 69.8731 299.581 69.9611C299.153 70.0128 298.485 70.0973 297.645 70.0106C295.976 69.896 293.576 69.1694 291.145 67.3657C288.674 65.6347 286.367 62.7128 284.238 59.4642C282.057 56.2294 279.912 52.7682 277.137 49.9706C274.402 47.1004 271.185 44.9474 268.026 43.3371C264.847 41.7632 261.699 40.8635 258.961 40.351C253.444 39.3986 249.674 40.1217 249.611 39.4251Z" fill="#7D6E3A"/>
<path d="M249.863 39.4517C250.16 39.5589 250.6 38.5116 251.667 37.0495C252.733 35.5875 254.603 33.6331 257.344 32.8422C260.054 32.0289 263.609 32.5105 266.399 35.118C267.808 36.356 269.095 38.0608 270.433 39.7517C271.772 41.4426 273.199 43.2961 275.041 44.6362C276.85 45.9539 279.006 46.9623 281.242 46.7711C283.49 46.6387 285.556 44.973 286.489 42.8644C287.453 40.7784 287.492 38.1942 286.524 36.3115C285.609 34.415 283.948 33.151 282.272 33.1315C280.615 33.0756 279.166 34.019 278.471 35.2893C277.723 36.5734 277.881 37.9891 278.16 38.9381C278.88 40.9486 280.205 41.1236 280.101 41.1513C280.153 41.1375 278.907 40.8173 278.336 38.8604C278.088 37.9338 278.027 36.5856 278.759 35.4916C279.44 34.4115 280.789 33.6496 282.218 33.7969C283.615 33.9218 285.063 35.0873 285.742 36.7676C286.472 38.4342 286.336 40.5481 285.454 42.2401C284.584 43.9909 282.964 45.1658 281.132 45.1877C279.332 45.2321 277.472 44.331 275.927 43.0981C272.753 40.6236 270.741 36.3517 267.553 33.4157C264.361 30.3258 259.985 29.7212 256.845 30.8352C253.588 31.918 251.609 34.3979 250.647 36.2351C249.666 38.1085 249.631 39.3894 249.863 39.4517Z" fill="#7D6E3A"/>
<path d="M178.212 40.4276C178.371 39.9457 174.604 38.2939 168.702 38.6496C165.784 38.8074 162.389 39.4942 158.943 40.9846C155.53 42.4549 152.066 44.6333 149.106 47.5233C146.077 50.3579 143.774 53.9171 141.613 57.0522C139.419 60.2073 137.199 62.943 134.787 64.6336C132.444 66.3796 130.078 67.0759 128.46 67.1784C127.634 67.2396 127.008 67.1807 126.551 67.1171C126.127 67.0334 125.889 66.9828 125.889 66.9828C125.889 66.9828 126.127 67.0334 126.568 67.1548C126.992 67.2384 127.654 67.3728 128.497 67.3492C130.169 67.3598 132.605 66.8144 135.137 65.1968C137.704 63.6546 140.177 60.9119 142.491 57.8298C144.856 54.7654 147.199 51.4725 150.132 48.8888C153.029 46.2297 156.364 44.3223 159.61 42.9521C162.874 41.6197 166.067 40.9576 168.83 40.6513C174.39 40.1141 178.109 41.118 178.212 40.4276Z" fill="#7D6E3A"/>
<path d="M177.959 40.4352C177.657 40.52 177.279 39.442 176.3 37.9033C175.322 36.3646 173.571 34.2745 170.882 33.2801C168.226 32.2656 164.651 32.48 161.715 34.8728C160.236 36.0027 158.853 37.6073 157.418 39.1943C155.984 40.7813 154.451 42.5238 152.535 43.7231C150.653 44.9024 148.443 45.7471 146.223 45.3889C143.988 45.0885 142.024 43.2717 141.217 41.098C140.377 38.9443 140.49 36.3629 141.565 34.5568C142.589 32.733 144.321 31.5961 145.994 31.7022C147.651 31.7705 149.041 32.8203 149.66 34.1398C150.331 35.4771 150.091 36.8779 149.757 37.8039C148.921 39.7561 147.589 39.8315 147.691 39.8669C147.64 39.8492 148.901 39.623 149.586 37.7132C149.887 36.8072 150.027 35.4665 149.36 34.3201C148.745 33.1914 147.443 32.3301 146.009 32.3702C144.608 32.3902 143.094 33.4446 142.319 35.0705C141.493 36.6787 141.505 38.7982 142.286 40.5525C143.051 42.3645 144.599 43.6582 146.425 43.8172C148.219 43.9963 150.127 43.2365 151.741 42.122C155.053 39.8905 157.311 35.7788 160.663 33.0879C164.029 30.2438 168.43 29.9682 171.498 31.3149C174.684 32.6392 176.513 35.2618 177.365 37.1669C178.234 39.1097 178.195 40.3904 177.959 40.4352Z" fill="#7D6E3A"/>
<path d="M364.006 142.552C363.73 142.6 363.399 141.594 364.296 140.225C364.771 139.604 365.482 138.956 366.475 138.619C367.449 138.24 368.875 138.338 369.874 139.287C370.896 140.173 371.464 141.617 371.441 143.179C371.457 144.719 370.619 146.572 369.307 147.548C367.973 148.588 366.331 149.023 364.776 148.739C363.181 148.476 361.852 147.449 361.003 146.158C360.114 144.89 359.692 143.211 359.694 141.713C359.677 140.173 359.91 138.755 360.041 137.444C360.441 134.799 360.187 132.357 358.733 131.036C357.398 129.65 355.709 129.284 354.552 129.351C353.964 129.363 353.528 129.498 353.212 129.568C352.913 129.68 352.735 129.726 352.735 129.726C352.735 129.726 352.896 129.638 353.176 129.484C353.474 129.373 353.932 129.173 354.542 129.098C355.686 128.884 357.579 129.035 359.208 130.415C360.042 131.094 360.743 132.155 361.044 133.436C361.385 134.695 361.388 136.087 361.333 137.459C361.165 140.184 360.952 143.037 362.483 144.883C363.171 145.797 364.183 146.43 365.177 146.557C366.21 146.663 367.301 146.324 368.03 145.718C369.644 144.524 369.452 141.996 368.43 141.11C367.511 140.117 365.94 140.719 365.251 141.303C364.544 141.845 364.358 142.566 364.006 142.552Z" fill="#7D6E3A"/>
<path d="M363.002 159.26C362.726 159.307 362.478 157.688 364.18 155.775C364.997 154.915 366.345 154.022 368.046 154.071C369.69 154.1 371.513 155.012 372.573 156.91C373.69 158.828 373.459 161.639 372.181 163.732C371 165.824 368.697 167.602 366.203 167.78C363.745 168.042 361.356 167.078 359.483 165.471C357.609 163.865 356.349 161.612 355.622 159.222C354.134 154.358 354.796 149.091 355.798 144.619C356.301 142.33 356.974 140.207 357.29 138.175C357.625 136.185 357.527 134.225 356.745 132.743C356.003 131.24 354.585 130.467 353.311 130.494C351.98 130.5 350.944 131.428 350.572 132.407C350.16 133.407 350.224 134.249 350.438 134.751C350.613 135.275 350.841 135.46 350.841 135.46C350.841 135.46 350.613 135.275 350.398 134.773C350.184 134.271 350.044 133.367 350.438 132.325C350.774 131.263 351.877 130.143 353.368 130.049C354.802 129.935 356.514 130.702 357.408 132.329C358.342 133.934 358.587 136.123 358.324 138.28C358.061 140.438 357.504 142.601 357.121 144.824C356.315 149.292 355.942 154.194 357.416 158.447C358.114 160.542 359.272 162.438 360.846 163.692C362.381 164.969 364.351 165.645 366.141 165.439C367.949 165.276 369.447 164.042 370.348 162.568C371.231 161.052 371.379 159.319 370.74 158.172C370.123 156.961 368.919 156.226 367.846 156.143C366.794 155.996 365.776 156.502 365.068 157.044C363.596 158.108 363.332 159.337 363.002 159.26Z" fill="#7D6E3A"/>
<path d="M369.548 121.088C369.383 120.817 369.64 120.263 370.525 119.675C371.388 119.151 372.893 118.74 374.511 119.403C376.129 120.066 377.602 121.892 377.7 124.316C377.799 126.74 376.374 129.069 374.577 130.414C372.7 131.803 370.514 132.122 368.679 131.992C366.826 131.819 365.222 131.303 363.894 130.74C361.277 129.592 359.84 128.313 359.84 128.313C359.84 128.313 361.486 129.271 364.177 130.017C365.514 130.369 367.109 130.632 368.814 130.575C370.462 130.499 372.265 129.977 373.563 128.853C374.861 127.729 375.713 126.024 375.554 124.613C375.453 123.223 374.543 122.018 373.66 121.572C371.627 120.517 369.879 121.629 369.548 121.088Z" fill="#7D6E3A"/>
<path d="M350.654 111.351C350.863 111.03 351.46 111.271 352.373 110.978C353.205 110.728 354.579 109.666 354.478 108.276C354.458 106.842 352.824 105.103 351.035 105.773C350.123 106.066 349.211 106.824 348.683 107.784C348.155 108.744 347.948 109.993 348.174 111.212C348.504 113.716 350.613 115.297 352.607 116.838C353.593 117.64 354.557 118.506 355.218 119.59C355.879 120.673 356.22 121.932 356.174 123.093C356.12 125.394 355.091 127.145 354.193 128.05C353.744 128.502 353.379 128.805 353.059 128.98C352.779 129.134 352.619 129.221 352.619 129.221C352.619 129.221 352.761 129.092 353.023 128.897C353.286 128.701 353.632 128.357 354.005 127.843C354.729 126.878 355.563 125.131 355.43 123.088C355.377 121 353.841 119.26 351.799 117.952C350.769 117.277 349.641 116.604 348.623 115.612C347.566 114.642 346.681 113.268 346.353 111.693C345.985 110.139 346.097 108.322 346.904 106.745C347.712 105.167 349.032 103.979 350.541 103.463C352.072 102.883 353.818 103.269 354.893 104.28C355.991 105.228 356.64 106.628 356.62 108.084C356.619 109.582 355.784 110.865 354.975 111.515C354.143 112.228 353.213 112.479 352.509 112.452C350.942 112.484 350.45 111.566 350.654 111.351Z" fill="#7D6E3A"/>
<path d="M338.446 101.877C338.597 101.537 339.653 102.042 341.34 101.48C342.154 101.189 343.097 100.621 343.688 99.5752C344.296 98.5711 344.533 97.0472 344.076 95.7486C343.62 94.45 342.384 93.5262 340.785 93.3693C339.186 93.2125 337.379 93.8405 336.184 95.3208C334.931 96.7813 334.2 98.885 334.111 101.102C334.004 103.277 334.601 105.48 335.62 107.4C337.654 111.345 341.285 114.055 344.883 116.112C346.662 117.151 348.508 117.999 350.167 119.104C351.826 120.209 353.191 121.784 353.725 123.608C354.299 125.411 353.786 127.447 352.8 128.606C351.809 129.872 350.309 130.177 349.404 129.795C348.437 129.498 347.897 128.813 347.682 128.311C347.467 127.809 347.48 127.493 347.48 127.493C347.48 127.493 347.467 127.809 347.722 128.289C347.937 128.791 348.539 129.39 349.431 129.625C350.34 129.902 351.626 129.559 352.456 128.381C353.305 127.246 353.649 125.509 353.027 123.939C352.484 122.326 351.186 121.024 349.598 120.086C348.011 119.148 346.063 118.408 344.204 117.413C340.482 115.527 336.419 112.848 333.97 108.51C332.763 106.383 331.983 103.867 332.031 101.208C332.057 98.6127 332.871 95.8955 334.6 93.8135C336.27 91.7115 338.931 90.7705 341.114 91.0208C343.359 91.1854 345.451 92.7244 346.088 94.9054C346.747 97.0226 346.23 99.1641 345.249 100.682C344.227 102.222 342.732 102.886 341.668 103.056C339.192 103.276 338.224 102.051 338.446 101.877Z" fill="#7D6E3A"/>
<path d="M368.975 119.749C368.765 119.142 370.62 118.281 371.186 115.906C371.446 114.783 371.194 113.269 370.234 112.297C369.315 111.303 367.644 110.979 366.06 111.434C364.457 111.847 363.017 113.1 361.92 114.578C360.805 116.015 360.015 117.635 359.43 119.039C358.26 121.848 357.921 123.944 357.921 123.944C357.921 123.944 357.926 121.876 358.753 118.842C359.186 117.314 359.784 115.593 360.854 113.82C361.901 112.111 363.479 110.369 365.606 109.566C367.635 108.764 370.134 108.945 371.772 110.578C373.392 112.169 373.744 114.609 373.2 116.455C372.616 118.324 371.397 119.404 370.539 119.822C369.644 120.157 369.061 120.064 368.975 119.749Z" fill="#7D6E3A"/>
<path d="M359.677 170.755C360.013 170.408 362.78 173.739 364.703 180.061C365.668 183.18 366.379 186.998 366.451 191.171C366.526 195.301 366.041 199.751 364.783 203.939C363.596 208.178 361.544 211.929 359.786 215.371C358.023 218.855 356.615 222.21 356.134 225.373C355.582 228.485 355.899 231.227 356.422 232.962C356.682 233.852 356.965 234.486 357.189 234.941C357.417 235.355 357.547 235.585 357.547 235.585C357.547 235.585 357.417 235.355 357.151 234.937C356.924 234.524 356.566 233.881 356.268 232.987C355.632 231.238 355.165 228.479 355.541 225.217C355.842 221.947 357.162 218.325 358.819 214.742C360.443 211.113 362.262 207.42 363.279 203.376C364.371 199.34 364.683 195.127 364.588 191.209C364.455 187.287 363.8 183.69 363.014 180.678C361.368 174.646 359.15 171.123 359.677 170.755Z" fill="#7D6E3A"/>
<path d="M359.767 171.023C359.81 171.372 360.836 171.364 362.464 171.813C364.092 172.262 366.462 173.314 368.285 175.76C370.113 178.165 371.279 181.994 370.42 185.971C370.048 187.945 369.253 189.998 368.49 192.098C367.728 194.197 366.875 196.458 366.611 198.917C366.351 201.333 366.488 203.968 367.614 206.161C368.699 208.392 370.925 209.77 373.009 209.801C375.089 209.874 377.162 208.787 378.239 206.982C379.349 205.224 379.631 202.982 378.916 201.266C378.239 199.555 376.857 198.491 375.543 198.336C374.196 198.135 373.138 198.912 372.504 199.61C371.218 201.219 371.656 202.644 371.589 202.55C371.623 202.597 371.335 201.19 372.643 199.755C373.272 199.1 374.318 198.45 375.508 198.719C376.664 198.941 377.858 199.983 378.363 201.502C378.873 202.978 378.576 204.961 377.535 206.384C376.527 207.854 374.786 208.636 373.055 208.475C371.283 208.353 369.642 207.215 368.826 205.359C368.007 203.545 367.913 201.259 368.221 199.149C368.807 194.839 371.33 190.929 372.277 186.404C373.345 181.808 371.92 177.09 369.665 174.377C367.384 171.533 364.549 170.599 362.668 170.42C360.75 170.237 359.715 170.759 359.767 171.023Z" fill="#7D6E3A"/>
<path d="M327.771 98.4972C328.223 98.4486 327.896 93.8933 325.042 88.0395C323.645 85.1377 321.619 81.9796 318.932 79.1205C316.275 76.2866 313.032 73.7081 309.443 71.9538C305.868 70.1054 302.032 69.3107 298.596 68.4766C295.129 67.6172 291.985 66.5487 289.589 64.8299C287.179 63.2052 285.594 61.1 284.808 59.4966C284.399 58.6823 284.173 58.0193 284.025 57.5261C283.906 57.058 283.843 56.7942 283.843 56.7942C283.843 56.7942 283.906 57.058 284.002 57.5605C284.12 58.0286 284.302 58.7605 284.688 59.6092C285.408 61.316 286.903 63.5589 289.294 65.4315C291.639 67.3729 294.899 68.6961 298.36 69.7092C301.829 70.782 305.47 71.733 308.803 73.5931C312.181 75.3843 315.153 77.9493 317.657 80.6572C320.139 83.3994 322.058 86.3626 323.505 89.0416C326.355 94.4687 327.177 98.6929 327.771 98.4972Z" fill="#7D6E3A"/>
<path d="M327.655 98.2426C327.456 97.972 328.149 97.1176 328.947 95.4506C329.745 93.7836 330.645 91.0906 330.265 87.9193C329.915 84.7733 328.187 81.227 325.003 79.2795C323.46 78.2667 321.58 77.5572 319.693 76.788C317.805 76.0188 315.751 75.2177 313.961 73.7898C312.203 72.387 310.568 70.5045 309.886 68.0886C309.151 65.6819 309.741 62.8906 311.119 61.122C312.467 59.3282 314.57 58.3185 316.475 58.6264C318.373 58.8746 320.032 60.1421 320.677 61.8925C321.344 63.6084 321.114 65.4814 320.334 66.6871C319.562 67.9524 318.343 68.3185 317.461 68.3814C315.543 68.3811 314.903 67.0576 314.919 67.1769C314.911 67.1172 315.64 68.303 317.458 68.168C318.311 68.0799 319.438 67.6381 320.06 66.4602C320.69 65.3419 320.808 63.6411 320.152 62.1982C319.525 60.7806 318.027 59.6989 316.395 59.618C314.756 59.4774 313.074 60.4132 312.019 61.9725C310.91 63.5412 310.555 65.6804 311.224 67.6098C311.863 69.514 313.3 71.126 314.889 72.2833C318.108 74.6828 322.363 75.1902 325.965 77.431C329.695 79.6189 331.832 83.9795 332.097 87.6902C332.431 91.5111 331.142 94.5165 329.997 96.2137C328.83 97.9453 327.793 98.4628 327.655 98.2426Z" fill="#7D6E3A"/>
<path d="M68.8696 113.336C69.0779 113.546 68.603 114.476 67.0989 114.564C66.3725 114.545 65.4783 114.336 64.6169 113.685C63.7385 113.075 62.8977 111.77 62.9094 110.293C62.8636 108.838 63.4865 107.423 64.5665 106.45C65.6061 105.456 67.4028 105.008 68.9035 105.531C70.4617 106.034 71.8034 107.19 72.5989 108.728C73.4349 110.287 73.5801 112.1 73.2401 113.662C72.9406 115.245 72.0641 116.682 71.0417 117.633C70.0021 118.628 68.8865 119.327 67.9093 120.046C65.8508 121.381 64.3473 123.157 64.3725 125.266C64.2765 127.312 65.1015 129.019 65.8833 129.987C66.2657 130.492 66.6357 130.786 66.8844 131.018C67.1503 131.207 67.2949 131.333 67.2949 131.333C67.2949 131.333 67.1332 131.249 66.8502 131.102C66.5843 130.913 66.1567 130.64 65.7168 130.156C64.8431 129.293 63.7413 127.546 63.6462 125.247C63.5784 124.087 63.856 122.799 64.5378 121.722C65.1793 120.623 66.127 119.735 67.098 118.909C69.0634 117.322 71.1439 115.693 71.4284 113.182C71.6141 112 71.4017 110.714 70.8563 109.766C70.2705 108.797 69.3454 108.061 68.4683 107.811C66.627 107.162 65.0255 108.938 65.0714 110.393C64.9788 111.828 66.389 112.815 67.2257 113.045C68.0453 113.317 68.6552 113.02 68.8696 113.336Z" fill="#7D6E3A"/>
<path d="M80.9028 103.581C81.1111 103.791 80.1647 105.038 77.7773 104.77C76.67 104.604 75.2036 103.996 74.1545 102.48C73.1287 101.028 72.5902 98.8565 73.2105 96.7244C73.8074 94.5291 75.8707 92.9416 78.1122 92.7248C80.29 92.4237 82.9679 93.3025 84.6761 95.3652C86.4186 97.3434 87.282 100.041 87.3785 102.699C87.475 105.356 86.741 107.889 85.5732 110.044C83.2035 114.438 79.1905 117.211 75.5031 119.183C73.6221 120.2 71.7458 120.965 70.1587 121.981C68.5888 122.956 67.3142 124.288 66.8015 125.914C66.2485 127.518 66.6239 129.247 67.4523 130.342C68.3041 131.5 69.5964 131.812 70.5003 131.515C71.4446 131.238 71.9784 130.646 72.184 130.139C72.43 129.653 72.4115 129.337 72.4115 129.337C72.4115 129.337 72.43 129.653 72.2244 130.16C72.0188 130.667 71.4912 131.364 70.5298 131.683C69.5916 132.066 68.1266 131.816 67.1131 130.575C66.123 129.396 65.5564 127.415 66.0971 125.599C66.5974 123.763 67.9344 122.156 69.5729 121.013C71.2114 119.869 73.041 118.979 74.8008 117.898C78.3607 115.758 81.9413 112.964 83.9033 108.973C84.8874 107.029 85.4439 104.813 85.2974 102.641C85.1912 100.49 84.3992 98.3401 83.1199 96.9091C81.8577 95.4359 80.063 94.9133 78.4842 95.0652C76.8882 95.2592 75.6123 96.2329 75.2367 97.5206C74.8036 98.8296 75.0687 100.348 75.695 101.337C76.2637 102.348 77.2573 102.915 78.0769 103.187C79.7392 103.795 80.7459 103.243 80.9028 103.581Z" fill="#7D6E3A"/>
<path d="M50.7053 122.158C50.6258 122.475 50.0844 122.603 49.1203 122.205C48.2137 121.785 46.9762 120.734 46.3986 118.9C45.821 117.067 46.1288 114.619 47.7193 112.991C49.3098 111.362 51.8048 111.124 53.8654 111.835C56.0067 112.589 57.6156 114.293 58.6942 115.978C59.7556 117.705 60.425 119.433 60.8861 120.95C61.7679 123.964 61.8103 126.031 61.8103 126.031C61.8103 126.031 61.4164 123.986 60.2125 121.163C59.602 119.772 58.7661 118.214 57.6423 116.761C56.5418 115.372 55.0384 114.131 53.4459 113.714C51.8534 113.296 50.1485 113.638 49.2878 114.674C48.4038 115.647 48.1618 117.208 48.4194 118.262C48.9936 120.707 50.8643 121.525 50.7053 122.158Z" fill="#7D6E3A"/>
<path d="M56.0883 144.84C55.7368 144.862 55.521 144.188 54.7405 143.578C54.0409 143.011 52.4422 142.488 51.5582 143.46C50.5933 144.391 50.4473 146.923 52.0425 148.057C52.823 148.667 53.9194 148.981 54.9102 148.83C55.9011 148.68 56.8845 148.066 57.5725 147.094C59.0699 145.212 58.8055 142.365 58.5877 139.645C58.5075 138.274 58.485 136.882 58.803 135.615C59.121 134.349 59.7624 133.25 60.5841 132.552C62.1869 131.135 64.0364 130.919 65.2247 131.127C65.8188 131.23 66.2573 131.356 66.5808 131.524C66.8638 131.671 67.0255 131.755 67.0255 131.755C67.0255 131.755 66.8466 131.713 66.5465 131.608C66.2464 131.504 65.7907 131.42 65.2027 131.422C64.0844 131.404 62.3623 131.788 61.0535 133.205C59.6637 134.58 59.4539 137.027 59.8615 139.641C60.0568 140.97 60.3158 142.382 60.2869 143.901C60.2985 145.441 59.9243 147.087 59.0588 148.376C58.2337 149.686 56.9234 150.744 55.3336 151.044C53.7438 151.343 52.0938 150.947 50.7816 149.959C49.4118 148.992 48.5635 147.223 48.569 145.641C48.517 144.08 49.0591 142.623 50.0644 141.713C51.0869 140.762 52.493 140.673 53.451 140.966C54.4665 141.238 55.2298 141.89 55.6588 142.521C56.6784 143.869 56.3652 144.882 56.0883 144.84Z" fill="#7D6E3A"/>
<path d="M57.3964 161.522C57.0682 161.608 56.7407 160.364 55.2839 159.25C54.5671 158.725 53.5797 158.263 52.4908 158.414C51.4191 158.522 50.2288 159.284 49.6339 160.509C49.0391 161.734 49.1953 163.4 50.1059 164.896C51.0165 166.391 52.5946 167.568 54.3646 167.669C56.1579 167.833 58.0575 167.132 59.6261 165.799C61.1775 164.508 62.3 162.585 62.9607 160.474C64.3567 156.188 63.8944 151.296 63.0071 146.848C62.5837 144.634 61.9877 142.484 61.6855 140.333C61.3834 138.182 61.5884 135.988 62.493 134.362C63.3572 132.714 65.0717 131.866 66.4902 131.989C67.9833 132.048 69.1462 133.163 69.4613 134.196C69.8745 135.228 69.7511 136.135 69.5455 136.642C69.3399 137.149 69.1159 137.339 69.1159 137.339C69.1159 137.339 69.3399 137.149 69.5051 136.621C69.7107 136.114 69.7361 135.207 69.3291 134.28C68.9392 133.311 67.8867 132.407 66.5553 132.431C65.2409 132.414 63.8375 133.219 63.1632 134.761C62.408 136.26 62.3462 138.222 62.7168 140.204C63.0875 142.186 63.822 144.356 64.3263 146.612C65.4095 151.06 66.1672 156.31 64.7677 161.208C64.0851 163.614 62.8659 165.895 61.0218 167.546C59.2353 169.175 56.8643 170.193 54.3447 170.01C51.8483 169.89 49.513 168.167 48.2947 166.103C46.9784 164.039 46.6969 161.234 47.779 159.291C48.8035 157.369 50.5928 156.457 52.2524 156.347C53.9526 156.258 55.3566 157.14 56.1494 157.961C57.8748 159.981 57.6561 161.606 57.3964 161.522Z" fill="#7D6E3A"/>
<path d="M50.1569 123.511C49.8766 124.081 48.1087 123.01 46.1297 124.028C45.1977 124.515 44.326 125.699 44.2739 127.154C44.1813 128.589 45.0234 130.253 46.3418 131.347C47.643 132.482 49.4144 132.942 51.1207 132.958C52.8098 133.017 54.4168 132.675 55.7468 132.292C58.407 131.526 60.0517 130.488 60.0517 130.488C60.0517 130.488 58.6386 131.799 56.0435 133.008C54.7258 133.602 53.1716 134.176 51.2817 134.371C49.4493 134.545 47.2579 134.276 45.3563 132.931C43.5185 131.67 42.0515 129.375 42.1229 126.907C42.1771 124.481 43.6169 122.621 45.2225 121.921C46.8685 121.241 48.3801 121.617 49.212 122.1C50.0096 122.667 50.3173 123.236 50.1569 123.511Z" fill="#7D6E3A"/>
<path d="M90.858 99.1657C90.408 99.0938 90.9185 94.5598 94.0064 88.859C95.5189 86.0322 97.6703 82.9817 100.47 80.2641C103.239 77.5701 106.582 75.1614 110.239 73.5942C113.885 71.9321 117.749 71.3362 121.215 70.6803C124.713 70.0007 127.897 69.0955 130.359 67.5021C132.833 66.0034 134.501 63.9821 135.352 62.4209C135.793 61.6285 136.045 60.9777 136.213 60.4926C136.35 60.0311 136.424 59.7708 136.424 59.7708C136.424 59.7708 136.35 60.0311 136.234 60.5282C136.097 60.9897 135.887 61.7115 135.466 62.5395C134.678 64.2074 133.094 66.371 130.631 68.1184C128.209 69.9369 124.899 71.0905 121.401 71.924C117.893 72.8166 114.217 73.5787 110.812 75.2649C107.365 76.88 104.293 79.2892 101.682 81.8651C99.0914 84.4765 97.0554 87.3378 95.5015 89.9396C92.4353 95.2142 91.4438 99.3919 90.858 99.1657Z" fill="#7D6E3A"/>
<path d="M90.9839 98.9168C91.1938 98.6567 90.5359 97.7673 89.8061 96.0608C89.0763 94.3542 88.2856 91.6173 88.7937 88.4687C89.2703 85.3438 91.1398 81.8901 94.3987 80.1089C95.9811 79.1768 97.8875 78.565 99.8044 77.894C101.721 77.223 103.806 76.5287 105.651 75.1945C107.464 73.8839 109.174 72.0876 109.952 69.7093C110.784 67.3428 110.307 64.5237 109.002 62.6857C107.728 60.8241 105.668 59.7068 103.752 59.916C101.846 60.066 100.138 61.2466 99.4226 62.962C98.6869 64.6419 98.8405 66.5249 99.5711 67.7697C100.291 69.0737 101.494 69.5024 102.373 69.6107C104.289 69.7094 104.982 68.4202 104.961 68.5386C104.972 68.4794 104.195 69.6264 102.384 69.3977C101.537 69.2657 100.428 68.7661 99.8542 67.5572C99.27 66.4074 99.2206 64.7022 99.935 63.2946C100.618 61.9107 102.159 60.9074 103.792 60.9108C105.435 60.855 107.077 61.8766 108.069 63.489C109.113 65.1133 109.381 67.2689 108.634 69.1619C107.919 71.0312 106.419 72.5675 104.784 73.6416C101.472 75.8727 97.2008 76.1599 93.5123 78.2126C89.6982 80.2058 87.3876 84.4518 86.9727 88.1453C86.4844 91.9452 87.6515 95.0143 88.7266 96.769C89.8226 98.5592 90.837 99.1296 90.9839 98.9168Z" fill="#7D6E3A"/>
<path d="M61.8848 172.988C61.5637 172.624 58.6653 175.808 56.4896 182.024C55.3996 185.089 54.5351 188.867 54.2954 193.031C54.0535 197.152 54.3587 201.623 55.4463 205.871C56.4607 210.167 58.3597 214.02 59.9774 217.549C61.5973 221.121 62.8694 224.544 63.2219 227.729C63.6477 230.866 63.2205 233.588 62.6277 235.295C62.3324 236.17 62.024 236.789 61.7821 237.232C61.5381 237.633 61.3984 237.856 61.3984 237.856C61.3984 237.856 61.5381 237.633 61.8198 237.23C62.0638 236.829 62.4476 236.205 62.7806 235.328C63.4864 233.613 64.0643 230.881 63.8204 227.604C63.6518 224.322 62.4796 220.635 60.9684 216.971C59.4926 213.261 57.8241 209.479 56.9713 205.386C56.0431 201.299 55.9017 197.074 56.1546 193.165C56.4451 189.254 57.2452 185.695 58.1512 182.727C60.0386 176.787 62.3964 173.382 61.8848 172.988Z" fill="#7D6E3A"/>
<path d="M61.7849 173.252C61.727 173.598 60.7033 173.537 59.0587 173.901C57.4142 174.266 55.0047 175.194 53.0841 177.544C51.1613 179.851 49.8426 183.616 50.5404 187.633C50.8316 189.624 51.5439 191.716 52.2207 193.852C52.8974 195.989 53.6583 198.291 53.8229 200.761C53.9854 203.188 53.7422 205.813 52.5287 207.946C51.355 210.118 49.0761 211.38 46.993 211.303C44.9122 211.268 42.8852 210.075 41.8825 208.217C40.8443 206.403 40.653 204.149 41.4363 202.472C42.182 200.798 43.6053 199.806 44.9239 199.72C46.278 199.588 47.3035 200.419 47.908 201.149C49.128 202.823 48.633 204.224 48.7039 204.134C48.6684 204.179 49.0128 202.787 47.7639 201.287C47.1616 200.6 46.1426 199.897 44.9436 200.104C43.7801 200.265 42.5451 201.245 41.9791 202.736C41.4108 204.185 41.6268 206.18 42.6098 207.656C43.5573 209.176 45.2653 210.047 47.0005 209.976C48.7756 209.945 50.4605 208.894 51.3502 207.082C52.2422 205.313 52.4276 203.034 52.2051 200.91C51.7935 196.575 49.4315 192.538 48.6676 187.97C47.7863 183.323 49.4003 178.684 51.762 176.091C54.1549 173.368 57.0252 172.581 58.9111 172.5C60.8347 172.416 61.8471 172.991 61.7849 173.252Z" fill="#7D6E3A"/>
<path d="M227.248 428.674C227.166 428.373 226.221 428.473 225.522 429.983C225.235 430.738 225.03 431.744 225.194 432.901C225.317 434.059 226.015 435.467 227.207 436.071C228.357 436.725 229.754 436.675 230.986 435.971C232.218 435.316 233.327 433.656 233.533 431.895C233.779 430.083 233.41 428.222 232.506 426.762C231.602 425.253 230.205 424.347 228.809 424.045C227.412 423.693 225.892 423.995 224.701 424.649C223.469 425.303 222.442 426.159 221.456 426.863C219.525 428.423 217.471 429.228 215.787 428.322C214.103 427.567 213.076 426.008 212.624 424.8C212.377 424.196 212.295 423.693 212.213 423.341C212.172 422.989 212.131 422.787 212.131 422.787C212.131 422.787 212.131 422.989 212.131 423.341C212.172 423.693 212.213 424.246 212.418 424.901C212.747 426.159 213.692 428.02 215.499 429.077C216.403 429.631 217.553 429.882 218.703 429.631C219.854 429.429 220.963 428.825 222.031 428.171C224.126 426.813 226.303 425.353 228.439 426.108C229.466 426.41 230.411 427.165 230.945 428.121C231.479 429.127 231.684 430.385 231.52 431.392C231.273 433.555 229.178 434.461 228.028 433.807C226.837 433.304 226.632 431.442 226.796 430.486C226.919 429.53 227.412 429.027 227.248 428.674Z" fill="#7D6E3A"/>
<path d="M240.105 420.372C240.023 420.07 238.626 420.523 237.846 423.09C237.517 424.297 237.394 426.058 238.174 427.769C238.914 429.43 240.434 430.889 242.406 431.14C244.418 431.442 246.554 429.983 247.664 427.769C248.814 425.656 249.225 422.536 248.28 419.919C247.417 417.303 245.61 415.29 243.515 414.083C241.42 412.875 239.078 412.573 236.86 412.875C232.341 413.479 228.439 416.448 225.317 419.416C223.715 420.926 222.318 422.536 220.839 423.744C219.402 424.951 217.8 425.706 216.28 425.555C214.76 425.454 213.527 424.347 212.993 423.039C212.418 421.681 212.706 420.221 213.322 419.416C213.938 418.561 214.636 418.259 215.129 418.259C215.622 418.209 215.869 418.36 215.869 418.36C215.869 418.36 215.622 418.209 215.129 418.209C214.636 418.209 213.856 418.46 213.199 419.316C212.5 420.121 212.09 421.731 212.665 423.291C213.199 424.8 214.554 426.209 216.239 426.411C217.923 426.662 219.771 425.958 221.373 424.75C222.975 423.542 224.454 422.033 226.056 420.674C229.26 417.907 232.999 415.391 237.024 415.039C238.996 414.837 241.009 415.19 242.693 416.246C244.377 417.253 245.774 418.963 246.39 420.876C247.047 422.788 246.719 424.851 245.938 426.411C245.117 427.97 243.802 428.876 242.611 428.725C241.379 428.625 240.269 427.719 239.735 426.662C239.16 425.656 239.119 424.398 239.242 423.442C239.448 421.479 240.311 420.674 240.105 420.372Z" fill="#7D6E3A"/>
<path d="M212.583 443.67C212.295 443.619 211.967 444.122 211.884 445.28C211.843 446.387 212.172 448.098 213.404 449.456C214.637 450.815 216.732 451.519 218.703 450.563C220.675 449.607 221.908 447.142 222.195 444.726C222.483 442.21 221.784 439.845 220.881 438.034C219.936 436.223 218.827 434.814 217.8 433.707C215.746 431.543 214.103 430.637 214.103 430.637C214.103 430.637 215.581 431.895 217.348 434.31C218.211 435.518 219.114 437.028 219.813 438.789C220.47 440.5 220.84 442.563 220.511 444.374C220.182 446.186 219.196 447.796 218.005 448.249C216.855 448.752 215.499 448.349 214.76 447.645C213.035 446.035 213.158 443.77 212.583 443.67Z" fill="#7D6E3A"/>
<path d="M196.603 428.674C196.439 429.026 196.891 429.53 197.055 430.586C197.219 431.542 196.973 433.404 195.823 433.907C194.672 434.511 192.577 433.605 192.331 431.492C192.167 430.435 192.372 429.177 192.906 428.221C193.44 427.265 194.344 426.511 195.412 426.209C197.548 425.454 199.725 426.913 201.82 428.272C202.888 428.926 203.997 429.53 205.147 429.731C206.298 429.932 207.448 429.731 208.352 429.177C210.159 428.121 211.104 426.309 211.432 425.001C211.597 424.347 211.679 423.844 211.679 423.441C211.679 423.089 211.679 422.888 211.679 422.888C211.679 422.888 211.638 423.089 211.597 423.441C211.556 423.793 211.432 424.297 211.186 424.9C210.734 426.058 209.707 427.668 208.023 428.423C206.339 429.278 204.285 428.473 202.354 426.963C201.368 426.209 200.341 425.353 199.109 424.749C197.877 424.095 196.398 423.793 195.001 424.146C193.604 424.447 192.208 425.353 191.304 426.863C190.4 428.372 190.031 430.234 190.277 431.995C190.482 433.807 191.55 435.417 192.824 436.071C194.056 436.775 195.453 436.826 196.603 436.172C197.794 435.517 198.452 434.109 198.616 433.002C198.821 431.844 198.616 430.788 198.287 430.083C197.63 428.473 196.685 428.372 196.603 428.674Z" fill="#7D6E3A"/>
<path d="M183.746 420.372C183.54 420.674 184.403 421.529 184.69 423.491C184.814 424.447 184.772 425.655 184.197 426.712C183.663 427.768 182.554 428.674 181.322 428.775C180.09 428.875 178.816 428.02 177.995 426.46C177.173 424.9 176.885 422.787 177.543 420.925C178.159 419.013 179.514 417.352 181.24 416.296C182.924 415.239 184.937 414.887 186.909 415.088C190.934 415.44 194.672 417.956 197.877 420.724C199.479 422.082 200.957 423.592 202.559 424.8C204.162 426.007 206.01 426.712 207.694 426.46C209.378 426.259 210.775 424.85 211.268 423.34C211.843 421.781 211.432 420.12 210.734 419.365C210.077 418.51 209.296 418.258 208.803 418.258C208.31 418.258 208.064 418.409 208.064 418.409C208.064 418.409 208.31 418.258 208.803 418.309C209.296 418.309 210.036 418.661 210.611 419.466C211.227 420.271 211.515 421.73 210.939 423.089C210.405 424.447 209.173 425.554 207.653 425.605C206.133 425.756 204.531 425.001 203.093 423.793C201.656 422.586 200.218 420.925 198.616 419.466C195.494 416.497 191.592 413.528 187.073 412.925C184.855 412.623 182.513 412.925 180.418 414.132C178.364 415.289 176.557 417.302 175.653 419.969C174.708 422.586 175.119 425.705 176.269 427.819C177.378 430.033 179.514 431.492 181.527 431.19C183.499 430.938 184.978 429.479 185.758 427.819C186.539 426.108 186.416 424.296 186.087 423.139C185.183 420.523 183.787 420.07 183.746 420.372Z" fill="#7D6E3A"/>
<path d="M211.268 443.67C210.693 443.721 210.816 445.985 209.173 447.595C208.393 448.35 207.078 448.753 205.887 448.199C204.696 447.696 203.71 446.136 203.381 444.325C203.011 442.513 203.381 440.5 204.079 438.739C204.737 436.978 205.682 435.469 206.544 434.261C208.269 431.846 209.789 430.588 209.789 430.588C209.789 430.588 208.146 431.493 206.092 433.657C205.065 434.764 203.956 436.123 203.011 437.984C202.108 439.796 201.409 442.161 201.697 444.677C201.943 447.092 203.176 449.558 205.189 450.514C207.16 451.47 209.255 450.765 210.488 449.407C211.72 447.998 212.049 446.287 212.008 445.23C211.884 444.174 211.556 443.62 211.268 443.67Z" fill="#7D6E3A"/>
<path d="M247.804 411.979C247.674 412.472 251.53 413.838 257.398 413.041C260.3 412.665 263.648 411.725 267 409.98C270.319 408.258 273.649 405.825 276.433 402.719C279.289 399.664 281.38 395.94 283.352 392.65C285.357 389.337 287.412 386.441 289.72 384.574C291.956 382.656 294.275 381.784 295.885 381.561C296.705 381.438 297.333 381.45 297.793 381.479C298.221 381.531 298.461 381.564 298.461 381.564C298.461 381.564 298.221 381.531 297.773 381.443C297.346 381.391 296.678 381.307 295.837 381.393C294.168 381.508 291.769 382.235 289.338 384.038C286.867 385.769 284.559 388.691 282.431 391.94C280.25 395.175 278.105 398.636 275.33 401.433C272.594 404.304 269.377 406.457 266.219 408.067C263.04 409.641 259.892 410.541 257.153 411.053C251.637 412.006 247.866 411.282 247.804 411.979Z" fill="#7D6E3A"/>
<path d="M248.056 411.952C248.352 411.845 248.793 412.893 249.859 414.355C250.926 415.817 252.795 417.771 255.537 418.562C258.247 419.375 261.802 418.894 264.592 416.286C266.001 415.048 267.288 413.343 268.626 411.652C269.965 409.961 271.392 408.108 273.233 406.768C275.043 405.45 277.199 404.442 279.435 404.633C281.683 404.765 283.749 406.431 284.682 408.54C285.646 410.626 285.684 413.21 284.717 415.093C283.802 416.989 282.141 418.253 280.464 418.273C278.808 418.329 277.359 417.385 276.663 416.115C275.916 414.831 276.073 413.415 276.353 412.466C277.073 410.455 278.398 410.28 278.294 410.253C278.346 410.267 277.1 410.587 276.529 412.544C276.281 413.47 276.22 414.819 276.952 415.913C277.632 416.993 278.982 417.755 280.411 417.607C281.808 417.482 283.256 416.317 283.935 414.637C284.665 412.97 284.529 410.856 283.647 409.164C282.777 407.413 281.157 406.238 279.325 406.216C277.525 406.172 275.665 407.073 274.12 408.306C270.946 410.781 268.934 415.052 265.746 417.988C262.554 421.078 258.178 421.683 255.038 420.569C251.781 419.486 249.802 417.006 248.84 415.169C247.859 413.296 247.824 412.015 248.056 411.952Z" fill="#7D6E3A"/>
<path d="M176.405 410.975C176.564 411.457 172.797 413.109 166.895 412.753C163.977 412.596 160.582 411.909 157.136 410.418C153.723 408.948 150.258 406.77 147.299 403.88C144.27 401.045 141.967 397.486 139.806 394.351C137.612 391.195 135.391 388.46 132.98 386.769C130.637 385.023 128.271 384.327 126.653 384.224C125.827 384.163 125.201 384.222 124.743 384.286C124.32 384.369 124.082 384.42 124.082 384.42C124.082 384.42 124.32 384.369 124.761 384.248C125.185 384.164 125.846 384.03 126.69 384.053C128.362 384.043 130.798 384.588 133.33 386.206C135.896 387.748 138.37 390.491 140.684 393.573C143.049 396.637 145.392 399.93 148.324 402.514C151.222 405.173 154.557 407.081 157.803 408.451C161.067 409.783 164.26 410.445 167.023 410.752C172.583 411.289 176.302 410.285 176.405 410.975Z" fill="#7D6E3A"/>
<path d="M176.152 410.969C175.85 410.884 175.472 411.962 174.493 413.501C173.515 415.04 171.764 417.13 169.075 418.124C166.419 419.139 162.844 418.924 159.907 416.531C158.429 415.402 157.046 413.797 155.611 412.21C154.177 410.623 152.644 408.88 150.728 407.681C148.846 406.502 146.636 405.657 144.416 406.015C142.181 406.316 140.217 408.132 139.41 410.306C138.57 412.46 138.683 415.041 139.758 416.847C140.782 418.671 142.514 419.808 144.187 419.702C145.843 419.634 147.234 418.584 147.853 417.264C148.524 415.927 148.284 414.526 147.949 413.6C147.114 411.648 145.781 411.573 145.884 411.537C145.833 411.555 147.094 411.781 147.779 413.691C148.08 414.597 148.22 415.938 147.553 417.084C146.938 418.213 145.636 419.074 144.202 419.034C142.801 419.014 141.287 417.96 140.512 416.334C139.686 414.725 139.698 412.606 140.479 410.852C141.244 409.04 142.791 407.746 144.618 407.587C146.412 407.408 148.32 408.168 149.934 409.282C153.246 411.514 155.503 415.625 158.856 418.316C162.222 421.16 166.622 421.436 169.691 420.089C172.877 418.765 174.706 416.142 175.558 414.237C176.427 412.294 176.387 411.014 176.152 410.969Z" fill="#7D6E3A"/>
<path d="M364.532 302.113C364.254 302.076 363.954 303.094 364.893 304.427C365.387 305.029 366.118 305.649 367.12 305.946C368.105 306.286 369.527 306.133 370.497 305.144C371.49 304.218 372.014 302.753 371.942 301.193C371.911 299.653 371.016 297.835 369.675 296.911C368.31 295.924 366.655 295.554 365.11 295.9C363.524 296.225 362.227 297.304 361.419 298.628C360.57 299.93 360.2 301.625 360.247 303.122C360.278 304.662 360.555 306.07 360.727 307.375C361.208 310.003 361.029 312.453 359.616 313.83C358.325 315.268 356.649 315.7 355.49 315.68C354.902 315.691 354.462 315.573 354.144 315.515C353.843 315.416 353.663 315.377 353.663 315.377C353.663 315.377 353.826 315.458 354.111 315.6C354.412 315.7 354.876 315.881 355.488 315.933C356.638 316.101 358.526 315.876 360.11 314.432C360.923 313.721 361.591 312.632 361.853 311.341C362.155 310.069 362.114 308.678 362.017 307.308C361.765 304.591 361.464 301.749 362.938 299.844C363.597 298.903 364.589 298.23 365.578 298.064C366.607 297.918 367.708 298.214 368.455 298.79C370.105 299.92 369.991 302.453 368.997 303.379C368.109 304.409 366.521 303.869 365.814 303.313C365.091 302.799 364.883 302.085 364.532 302.113Z" fill="#7D6E3A"/>
<path d="M363.013 285.455C362.735 285.418 362.537 287.046 364.297 288.891C365.141 289.719 366.515 290.558 368.214 290.441C369.856 290.347 371.65 289.364 372.65 287.425C373.707 285.464 373.39 282.665 372.048 280.622C370.804 278.578 368.447 276.893 365.949 276.813C363.485 276.649 361.127 277.706 359.304 279.386C357.481 281.066 356.291 283.367 355.639 285.784C354.301 290.703 355.125 295.941 356.265 300.371C356.838 302.638 357.576 304.734 357.955 306.752C358.351 308.728 358.314 310.691 357.578 312.202C356.882 313.734 355.489 314.562 354.215 314.586C352.884 314.633 351.821 313.745 351.418 312.783C350.976 311.799 351.014 310.955 351.213 310.445C351.371 309.914 351.593 309.72 351.593 309.72C351.593 309.72 351.371 309.914 351.172 310.424C350.973 310.934 350.861 311.844 351.287 312.869C351.656 313.917 352.792 314.993 354.286 315.028C355.723 315.085 357.41 314.252 358.253 312.591C359.137 310.949 359.314 308.752 358.985 306.606C358.655 304.461 358.032 302.321 357.581 300.114C356.637 295.68 356.113 290.796 357.455 286.488C358.089 284.366 359.187 282.426 360.722 281.11C362.216 279.774 364.164 279.02 365.959 279.155C367.771 279.247 369.306 280.421 370.252 281.859C371.182 283.339 371.383 285.065 370.78 286.237C370.2 287.471 369.02 288.253 367.95 288.379C366.904 288.567 365.87 288.102 365.146 287.588C363.642 286.582 363.34 285.364 363.013 285.455Z" fill="#7D6E3A"/>
<path d="M370.732 323.346C370.576 323.623 370.85 324.167 371.752 324.719C372.631 325.209 374.147 325.56 375.744 324.834C377.34 324.108 378.756 322.225 378.78 319.798C378.803 317.372 377.308 315.1 375.471 313.827C373.552 312.513 371.358 312.28 369.528 312.483C367.681 312.729 366.094 313.307 364.784 313.923C362.204 315.174 360.808 316.508 360.808 316.508C360.808 316.508 362.422 315.486 365.089 314.634C366.414 314.229 368 313.904 369.707 313.893C371.356 313.904 373.173 314.355 374.505 315.427C375.837 316.499 376.741 318.17 376.626 319.585C376.568 320.979 375.695 322.219 374.827 322.699C372.827 323.834 371.046 322.792 370.732 323.346Z" fill="#7D6E3A"/>
<path d="M352.151 333.822C352.369 334.135 352.959 333.871 353.879 334.127C354.719 334.344 356.125 335.351 356.067 336.744C356.091 338.179 354.512 339.98 352.703 339.382C351.782 339.125 350.848 338.404 350.291 337.465C349.733 336.526 349.488 335.286 349.675 334.059C349.928 331.544 351.988 329.88 353.933 328.262C354.893 327.421 355.83 326.517 356.457 325.408C357.085 324.299 357.387 323.028 357.304 321.869C357.18 319.572 356.097 317.862 355.172 316.994C354.709 316.559 354.335 316.271 354.01 316.109C353.725 315.966 353.562 315.885 353.562 315.885C353.562 315.885 353.708 316.009 353.977 316.194C354.245 316.378 354.602 316.709 354.991 317.208C355.744 318.143 356.631 319.857 356.561 321.904C356.572 323.993 355.091 325.793 353.091 327.18C352.082 327.896 350.975 328.613 349.989 329.644C348.962 330.655 348.121 332.063 347.841 333.651C347.521 335.218 347.689 337.029 348.545 338.574C349.4 340.119 350.757 341.254 352.28 341.71C353.828 342.23 355.562 341.775 356.605 340.722C357.673 339.731 358.278 338.306 358.213 336.852C358.166 335.355 357.292 334.105 356.463 333.488C355.61 332.808 354.673 332.594 353.97 332.649C352.403 332.679 351.94 333.615 352.151 333.822Z" fill="#7D6E3A"/>
<path d="M340.242 343.773C340.403 344.107 341.443 343.56 343.146 344.056C343.969 344.314 344.929 344.845 345.551 345.867C346.19 346.846 346.474 348.36 346.058 349.676C345.641 350.992 344.435 351.964 342.842 352.184C341.248 352.404 339.423 351.847 338.183 350.415C336.886 349.005 336.091 346.931 335.933 344.719C335.759 342.549 336.288 340.324 337.247 338.365C339.159 334.342 342.703 331.491 346.236 329.293C347.982 328.184 349.8 327.264 351.424 326.094C353.048 324.924 354.364 323.296 354.841 321.452C355.359 319.628 354.784 317.613 353.762 316.493C352.733 315.268 351.225 315.022 350.332 315.44C349.375 315.774 348.856 316.48 348.657 316.99C348.458 317.501 348.48 317.817 348.48 317.817C348.48 317.817 348.458 317.501 348.698 317.011C348.897 316.501 349.48 315.878 350.364 315.608C351.264 315.296 352.56 315.588 353.426 316.732C354.309 317.833 354.706 319.556 354.133 321.149C353.641 322.783 352.383 324.135 350.826 325.135C349.268 326.135 347.345 326.952 345.517 328.02C341.855 330.051 337.878 332.889 335.564 337.321C334.424 339.494 333.722 342.039 333.852 344.695C333.958 347.288 334.855 349.971 336.647 351.984C338.381 354.019 341.07 354.854 343.243 354.518C345.482 354.265 347.525 352.644 348.094 350.439C348.687 348.297 348.105 346.177 347.077 344.699C346.009 343.2 344.494 342.596 343.426 342.468C340.945 342.346 340.014 343.608 340.242 343.773Z" fill="#7D6E3A"/>
<path d="M370.201 324.707C370.01 325.322 371.89 326.109 372.529 328.46C372.824 329.573 372.618 331.096 371.689 332.105C370.801 333.134 369.141 333.524 367.544 333.132C365.929 332.783 364.451 331.587 363.309 330.153C362.151 328.761 361.312 327.174 360.684 325.793C359.427 323.032 359.024 320.951 359.024 320.951C359.024 320.951 359.093 323.017 360.013 326.017C360.493 327.527 361.143 329.223 362.267 330.953C363.367 332.62 364.997 334.298 367.148 335.017C369.201 335.738 371.692 335.459 373.279 333.762C374.849 332.108 375.125 329.656 374.525 327.832C373.883 325.988 372.633 324.956 371.761 324.572C370.857 324.272 370.277 324.389 370.201 324.707Z" fill="#7D6E3A"/>
<path d="M359.335 274.098C359.681 274.431 362.344 270.993 364.07 264.599C364.939 261.444 365.532 257.6 365.475 253.427C365.423 249.297 364.8 244.868 363.414 240.732C362.097 236.543 359.931 232.875 358.067 229.505C356.198 226.092 354.687 222.795 354.109 219.653C353.462 216.565 353.694 213.812 354.163 212.056C354.395 211.158 354.659 210.513 354.868 210.048C355.083 209.626 355.206 209.391 355.206 209.391C355.206 209.391 355.083 209.626 354.831 210.054C354.616 210.476 354.278 211.133 354.008 212.038C353.427 213.811 353.045 216.587 353.521 219.832C353.923 223.088 355.353 226.656 357.12 230.171C358.855 233.735 360.787 237.353 361.929 241.355C363.145 245.345 363.586 249.543 363.612 253.462C363.6 257.387 363.056 261.008 362.364 264.049C360.905 270.143 358.797 273.752 359.335 274.098Z" fill="#7D6E3A"/>
<path d="M359.416 273.826C359.449 273.476 360.474 273.444 362.087 272.931C363.701 272.418 366.036 271.273 367.784 268.756C369.536 266.28 370.583 262.408 369.602 258.467C369.17 256.509 368.311 254.489 367.484 252.42C366.658 250.352 365.736 248.126 365.396 245.679C365.061 243.275 365.117 240.636 366.175 238.4C367.19 236.127 369.372 234.662 371.454 234.549C373.531 234.394 375.636 235.398 376.768 237.16C377.932 238.873 378.283 241.103 377.621 242.845C376.997 244.582 375.649 245.7 374.34 245.907C373 246.161 371.919 245.426 371.264 244.754C369.929 243.197 370.323 241.755 370.259 241.851C370.291 241.803 370.046 243.221 371.398 244.603C372.047 245.234 373.113 245.842 374.293 245.526C375.442 245.259 376.603 244.17 377.061 242.632C377.525 241.136 377.167 239.166 376.083 237.785C375.03 236.356 373.266 235.643 371.541 235.872C369.774 236.065 368.169 237.266 367.411 239.153C366.648 240.998 366.625 243.287 366.998 245.384C367.717 249.668 370.358 253.476 371.444 257.961C372.653 262.512 371.375 267.284 369.205 270.083C367.013 273.016 364.208 274.062 362.334 274.315C360.423 274.573 359.373 274.092 359.416 273.826Z" fill="#7D6E3A"/>
<path d="M329.677 347.571C330.131 347.602 329.945 352.167 327.273 358.13C325.966 361.085 324.039 364.322 321.442 367.285C318.874 370.222 315.712 372.927 312.179 374.822C308.664 376.811 304.855 377.756 301.446 378.725C298.008 379.721 294.899 380.913 292.558 382.725C290.199 384.444 288.68 386.611 287.943 388.244C287.56 389.074 287.355 389.746 287.222 390.245C287.118 390.717 287.063 390.983 287.063 390.983C287.063 390.983 287.118 390.717 287.198 390.211C287.302 389.739 287.46 389 287.82 388.136C288.487 386.402 289.913 384.102 292.243 382.136C294.528 380.103 297.745 378.652 301.172 377.503C304.606 376.294 308.215 375.2 311.49 373.209C314.81 371.286 317.701 368.605 320.12 365.8C322.516 362.961 324.342 359.924 325.706 357.189C328.386 351.653 329.077 347.399 329.677 347.571Z" fill="#7D6E3A"/>
<path d="M329.569 347.831C329.379 348.109 330.098 348.936 330.947 350.57C331.795 352.205 332.778 354.861 332.496 358.045C332.243 361.203 330.626 364.816 327.504 366.887C325.993 367.961 324.137 368.744 322.274 369.587C320.411 370.43 318.382 371.312 316.639 372.81C314.924 374.281 313.348 376.227 312.741 378.668C312.081 381.103 312.757 383.869 314.188 385.582C315.591 387.322 317.724 388.248 319.619 387.865C321.507 387.542 323.126 386.21 323.717 384.435C324.331 382.694 324.043 380.831 323.227 379.657C322.416 378.423 321.187 378.105 320.302 378.077C318.386 378.153 317.787 379.501 317.8 379.381C317.793 379.441 318.486 378.227 320.307 378.29C321.161 378.345 322.302 378.742 322.96 379.894C323.624 380.987 323.794 382.682 323.182 384.15C322.6 385.592 321.136 386.732 319.508 386.877C317.874 387.082 316.165 386.213 315.061 384.697C313.905 383.173 313.484 381.049 314.094 379.094C314.674 377.166 316.059 375.498 317.612 374.279C320.755 371.754 324.992 371.079 328.523 368.697C332.183 366.363 334.183 361.921 334.334 358.202C334.55 354.37 333.169 351.417 331.972 349.766C330.752 348.082 329.701 347.606 329.569 347.831Z" fill="#7D6E3A"/>
<path d="M67.0622 338.067C67.2706 337.856 66.7957 336.927 65.2915 336.838C64.5652 336.858 63.6709 337.066 62.8096 337.718C61.9311 338.327 61.0903 339.633 61.1021 341.109C61.0562 342.565 61.6791 343.98 62.7591 344.953C63.7987 345.947 65.5954 346.395 67.0961 345.871C68.6544 345.369 69.9961 344.213 70.7916 342.675C71.6275 341.116 71.7727 339.303 71.4328 337.741C71.1333 336.158 70.2568 334.721 69.2343 333.769C68.1948 332.775 67.0791 332.076 66.1019 331.356C64.0434 330.022 62.5399 328.246 62.5652 326.137C62.4691 324.09 63.2941 322.384 64.076 321.416C64.4583 320.911 64.8283 320.616 65.0771 320.385C65.3429 320.196 65.4875 320.07 65.4875 320.07C65.4875 320.07 65.3258 320.153 65.0428 320.3C64.7769 320.489 64.3494 320.763 63.9094 321.247C63.0358 322.109 61.934 323.857 61.8388 326.156C61.771 327.316 62.0486 328.603 62.7304 329.681C63.3719 330.78 64.3196 331.668 65.2907 332.493C67.256 334.08 69.3365 335.71 69.621 338.221C69.8067 339.403 69.5944 340.689 69.0489 341.637C68.4631 342.605 67.538 343.341 66.6609 343.592C64.8197 344.241 63.2182 342.465 63.264 341.01C63.1715 339.575 64.5817 338.587 65.4183 338.358C66.2379 338.086 66.8478 338.382 67.0622 338.067Z" fill="#7D6E3A"/>
<path d="M79.0954 347.822C79.3038 347.612 78.3574 346.365 75.97 346.633C74.8626 346.799 73.3962 347.406 72.3471 348.922C71.3214 350.375 70.7828 352.546 71.4031 354.679C72 356.874 74.0634 358.461 76.3048 358.678C78.4826 358.979 81.1605 358.1 82.8688 356.038C84.6113 354.06 85.4746 351.362 85.5711 348.704C85.6676 346.047 84.9336 343.514 83.7659 341.359C81.3961 336.965 77.3832 334.191 73.6957 332.22C71.8147 331.202 69.9384 330.438 68.3513 329.421C66.7814 328.447 65.5068 327.114 64.9942 325.489C64.4411 323.884 64.8165 322.156 65.645 321.061C66.4967 319.903 67.7891 319.59 68.6929 319.888C69.6372 320.165 70.171 320.757 70.3766 321.263C70.6227 321.749 70.6042 322.065 70.6042 322.065C70.6042 322.065 70.6227 321.749 70.4171 321.242C70.2115 320.736 69.6838 320.038 68.7224 319.719C67.7843 319.337 66.3192 319.586 65.3057 320.828C64.3156 322.007 63.749 323.988 64.2897 325.803C64.79 327.64 66.127 329.247 67.7655 330.39C69.404 331.533 71.2336 332.424 72.9934 333.505C76.5534 335.645 80.1339 338.438 82.096 342.43C83.0801 344.373 83.6366 346.59 83.49 348.762C83.3839 350.913 82.5918 353.063 81.3125 354.494C80.0503 355.967 78.2557 356.49 76.6768 356.338C75.0809 356.144 73.8049 355.17 73.4293 353.882C72.9962 352.573 73.2613 351.055 73.8876 350.066C74.4563 349.055 75.4499 348.488 76.2695 348.216C77.9319 347.608 78.9385 348.159 79.0954 347.822Z" fill="#7D6E3A"/>
<path d="M48.8979 329.244C48.8184 328.928 48.277 328.8 47.3129 329.198C46.4063 329.617 45.1688 330.669 44.5912 332.502C44.0136 334.336 44.3214 336.784 45.9119 338.412C47.5025 340.04 49.9975 340.279 52.058 339.567C54.1994 338.814 55.8083 337.109 56.8868 335.425C57.9482 333.698 58.6176 331.97 59.0787 330.452C59.9605 327.438 60.0029 325.371 60.0029 325.371C60.0029 325.371 59.609 327.416 58.4051 330.24C57.7946 331.63 56.9587 333.189 55.8349 334.641C54.7345 336.031 53.2311 337.271 51.6386 337.689C50.046 338.107 48.3411 337.765 47.4804 336.729C46.5964 335.756 46.3544 334.194 46.612 333.14C47.1862 330.695 49.0569 329.877 48.8979 329.244Z" fill="#7D6E3A"/>
<path d="M54.281 306.561C53.9294 306.539 53.7136 307.213 52.9331 307.823C52.2335 308.391 50.6348 308.914 49.7508 307.941C48.786 307.01 48.6399 304.479 50.2351 303.344C51.0156 302.734 52.112 302.421 53.1029 302.571C54.0938 302.721 55.0771 303.336 55.7651 304.308C57.2625 306.189 56.9981 309.036 56.7803 311.757C56.7002 313.127 56.6776 314.52 56.9956 315.786C57.3136 317.052 57.9551 318.151 58.7767 318.849C60.3796 320.267 62.2291 320.483 63.4173 320.275C64.0114 320.171 64.45 320.046 64.7734 319.878C65.0564 319.731 65.2181 319.647 65.2181 319.647C65.2181 319.647 65.0393 319.689 64.7391 319.793C64.439 319.898 63.9833 319.981 63.3953 319.979C62.277 319.998 60.555 319.613 59.2461 318.197C57.8563 316.822 57.6466 314.374 58.0542 311.76C58.2494 310.432 58.5084 309.019 58.4796 307.5C58.4912 305.96 58.1169 304.314 57.2514 303.025C56.4263 301.715 55.1161 300.657 53.5263 300.357C51.9365 300.058 50.2864 300.454 48.9742 301.442C47.6044 302.409 46.7561 304.178 46.7617 305.76C46.7097 307.321 47.2518 308.778 48.2571 309.688C49.2795 310.64 50.6856 310.728 51.6436 310.435C52.6591 310.164 53.4225 309.512 53.8514 308.88C54.871 307.533 54.5578 306.519 54.281 306.561Z" fill="#7D6E3A"/>
<path d="M55.5893 289.88C55.261 289.795 54.9336 291.039 53.4768 292.153C52.76 292.678 51.7726 293.14 50.6837 292.989C49.6119 292.881 48.4216 292.118 47.8268 290.893C47.2319 289.668 47.3881 288.002 48.2988 286.507C49.2094 285.012 50.7875 283.835 52.5575 283.734C54.3508 283.57 56.2503 284.271 57.8189 285.604C59.3704 286.895 60.4929 288.817 61.1536 290.929C62.5496 295.214 62.0872 300.107 61.2 304.555C60.7766 306.769 60.1805 308.919 59.8784 311.07C59.5763 313.22 59.7813 315.415 60.6859 317.041C61.55 318.689 63.2646 319.537 64.683 319.414C66.1762 319.355 67.339 318.24 67.6542 317.207C68.0674 316.175 67.944 315.268 67.7384 314.761C67.5328 314.254 67.3087 314.064 67.3087 314.064C67.3087 314.064 67.5328 314.254 67.698 314.782C67.9036 315.289 67.929 316.196 67.522 317.123C67.1321 318.092 66.0796 318.996 64.7481 318.972C63.4338 318.989 62.0304 318.184 61.356 316.642C60.6008 315.143 60.5391 313.181 60.9097 311.199C61.2804 309.217 62.0149 307.046 62.5191 304.791C63.6023 300.343 64.36 295.092 62.9606 290.195C62.278 287.789 61.0588 285.507 59.2147 283.857C57.4282 282.228 55.0572 281.209 52.5375 281.392C50.0412 281.512 47.7059 283.236 46.4876 285.3C45.1713 287.364 44.8898 290.168 45.9719 292.112C46.9964 294.034 48.7856 294.946 50.4453 295.056C52.1454 295.145 53.5495 294.262 54.3423 293.442C56.0677 291.421 55.849 289.796 55.5893 289.88Z" fill="#7D6E3A"/>
<path d="M48.3495 327.892C48.0692 327.322 46.3013 328.393 44.3223 327.375C43.3903 326.887 42.5186 325.704 42.4665 324.248C42.3739 322.813 43.216 321.149 44.5344 320.056C45.8357 318.92 47.607 318.461 49.3133 318.444C51.0025 318.386 52.6094 318.727 53.9395 319.11C56.5996 319.877 58.2443 320.915 58.2443 320.915C58.2443 320.915 56.8313 319.603 54.2362 318.394C52.9184 317.8 51.3642 317.226 49.4743 317.031C47.6419 316.858 45.4505 317.126 43.549 318.471C41.7112 319.732 40.2441 322.027 40.3155 324.495C40.3697 326.921 41.8095 328.781 43.4151 329.482C45.0611 330.161 46.5728 329.785 47.4046 329.303C48.2022 328.735 48.5099 328.166 48.3495 327.892Z" fill="#7D6E3A"/>
<path d="M89.0506 352.237C88.6006 352.309 89.1112 356.843 92.199 362.543C93.7115 365.37 95.8629 368.421 98.6629 371.138C101.431 373.832 104.775 376.241 108.431 377.808C112.077 379.47 115.941 380.066 119.407 380.722C122.905 381.402 126.089 382.307 128.552 383.901C131.025 385.399 132.693 387.421 133.544 388.982C133.985 389.774 134.238 390.425 134.406 390.91C134.543 391.372 134.617 391.632 134.617 391.632C134.617 391.632 134.543 391.372 134.427 390.875C134.29 390.413 134.079 389.691 133.659 388.863C132.871 387.195 131.286 385.032 128.823 383.284C126.402 381.466 123.092 380.312 119.594 379.479C116.085 378.586 112.409 377.824 109.004 376.138C105.557 374.523 102.486 372.113 99.8743 369.537C97.284 366.926 95.2481 364.065 93.6941 361.463C90.6279 356.188 89.6365 352.01 89.0506 352.237Z" fill="#7D6E3A"/>
<path d="M89.1766 352.486C89.3864 352.746 88.7285 353.635 87.9987 355.342C87.269 357.048 86.4782 359.785 86.9863 362.934C87.4629 366.059 89.3325 369.512 92.5913 371.294C94.1737 372.226 96.0801 372.838 97.997 373.509C99.9139 374.18 101.998 374.874 103.843 376.208C105.657 377.519 107.366 379.315 108.145 381.693C108.976 384.06 108.5 386.879 107.194 388.717C105.921 390.579 103.86 391.696 101.944 391.487C100.039 391.337 98.3302 390.156 97.6153 388.441C96.8795 386.761 97.0332 384.878 97.7637 383.633C98.4838 382.329 99.6869 381.9 100.566 381.792C102.482 381.693 103.175 382.982 103.154 382.864C103.164 382.923 102.388 381.776 100.577 382.005C99.7292 382.137 98.6204 382.637 98.0468 383.846C97.4626 384.995 97.4133 386.701 98.1276 388.108C98.8105 389.492 100.351 390.495 101.984 390.492C103.628 390.548 105.27 389.526 106.261 387.914C107.305 386.289 107.574 384.134 106.827 382.241C106.112 380.371 104.612 378.835 102.977 377.761C99.6651 375.53 95.3934 375.243 91.7049 373.19C87.8908 371.197 85.5802 366.951 85.1653 363.257C84.677 359.457 85.8441 356.388 86.9192 354.633C88.0152 352.843 89.0296 352.273 89.1766 352.486Z" fill="#7D6E3A"/>
<path d="M60.0774 278.414C59.7563 278.778 56.8579 275.594 54.6822 269.378C53.5922 266.313 52.7278 262.535 52.488 258.371C52.2461 254.249 52.5513 249.779 53.6389 245.53C54.6534 241.235 56.5523 237.382 58.17 233.853C59.7899 230.281 61.062 226.857 61.4146 223.673C61.8403 220.536 61.4131 217.813 60.8203 216.106C60.525 215.232 60.2166 214.613 59.9748 214.169C59.7308 213.768 59.591 213.545 59.591 213.545C59.591 213.545 59.7308 213.768 60.0125 214.172C60.2565 214.573 60.6402 215.196 60.9732 216.074C61.679 217.788 62.2569 220.52 62.013 223.798C61.8444 227.08 60.6722 230.766 59.161 234.431C57.6852 238.14 56.0167 241.923 55.1639 246.015C54.2357 250.103 54.0943 254.328 54.3472 258.236C54.6378 262.147 55.4378 265.707 56.3438 268.675C58.2312 274.615 60.589 278.02 60.0774 278.414Z" fill="#7D6E3A"/>
<path d="M59.9775 278.151C59.9196 277.805 58.8959 277.866 57.2513 277.502C55.6068 277.137 53.1973 276.209 51.2767 273.859C49.354 271.552 48.0353 267.787 48.733 263.77C49.0243 261.779 49.7365 259.687 50.4133 257.55C51.09 255.414 51.8509 253.111 52.0156 250.642C52.178 248.214 51.9348 245.59 50.7213 243.457C49.5476 241.284 47.2687 240.023 45.1857 240.1C43.1048 240.134 41.0778 241.327 40.0751 243.186C39.0369 245 38.8456 247.254 39.6289 248.931C40.3746 250.605 41.7979 251.596 43.1165 251.683C44.4706 251.814 45.4961 250.984 46.1006 250.253C47.3206 248.58 46.8256 247.179 46.8966 247.269C46.8611 247.224 47.2054 248.615 45.9565 250.116C45.3542 250.803 44.3353 251.506 43.1363 251.299C41.9727 251.137 40.7377 250.158 40.1717 248.667C39.6035 247.218 39.8194 245.222 40.8024 243.747C41.7499 242.227 43.4579 241.355 45.1932 241.426C46.9682 241.457 48.6531 242.509 49.5429 244.321C50.4348 246.09 50.6202 248.369 50.3977 250.493C49.9861 254.828 47.6241 258.864 46.8602 263.433C45.9789 268.08 47.5929 272.719 49.9547 275.312C52.3475 278.035 55.2178 278.822 57.1037 278.903C59.0273 278.987 60.0397 278.412 59.9775 278.151Z" fill="#7D6E3A"/>
<path d="M35.6157 226.473C35.3039 226.124 35.1128 225.644 35.1176 225.117C35.1273 224.062 35.916 223.212 36.8757 223.223L36.8767 223.222C37.8354 223.234 38.6085 224.101 38.5998 225.154C38.5901 226.209 37.8014 227.059 36.8417 227.048C36.3609 227.044 35.9284 226.824 35.6157 226.473ZM36.8699 223.862C36.2307 223.855 35.7049 224.422 35.6985 225.124C35.693 225.826 36.2074 226.403 36.8475 226.411C37.4867 226.418 38.0116 225.852 38.019 225.149C38.0235 224.446 37.5091 223.87 36.8699 223.862Z" fill="#7D6E3A"/>
<path d="M41.3603 216.046C43.38 216.042 45.2699 217.861 45.5343 220.06C45.7976 222.26 44.4327 225.028 41.825 225.001C43.4902 224.854 44.2671 220.743 42.1033 220.401C43.2352 220.224 43.4754 217.052 41.3603 216.046Z" fill="#7D6E3A"/>
<path d="M44.3266 226.09C45.7568 226.626 46.9461 227.972 47.4498 229.623C47.8009 228.812 47.7776 227.817 47.3883 227.026C49.6305 227.405 51.9985 226.794 53.8534 225.359C52.0261 223.881 49.6688 223.219 47.4201 223.548C47.8238 222.767 47.8653 221.773 47.5291 220.953C46.9952 222.595 45.7816 223.912 44.3419 224.416L38.4816 225.191L44.3266 226.09Z" fill="#7D6E3A"/>
<path d="M41.1925 234.395C43.2117 234.444 45.1346 232.667 45.439 230.475C45.7426 228.281 44.4286 225.482 41.8209 225.453C43.4831 225.636 44.1856 229.762 42.015 230.058C43.1434 230.26 43.3257 233.435 41.1925 234.395Z" fill="#7D6E3A"/>
<path d="M56.2635 225.42C53.6389 228.36 50.9145 231.172 48.1553 233.938C46.7901 235.32 45.3724 236.758 43.6127 237.813C42.7371 238.337 41.7424 238.715 40.6925 238.835C39.6483 238.952 38.54 238.779 37.5726 238.295C36.6052 237.811 35.7532 237.061 35.1189 236.115C34.4809 235.169 34.0921 234.024 33.9989 232.87C33.8086 230.587 34.6753 228.095 36.5782 226.88C37.5029 226.265 38.7466 226.109 39.7558 226.59C40.2604 226.825 40.7276 227.195 41.0519 227.702C41.3873 228.198 41.5435 228.852 41.5047 229.442C41.4641 230.039 41.268 230.617 40.909 231.068C40.5584 231.514 40.021 231.827 39.4757 231.783C38.9396 231.756 38.466 231.468 38.1297 231.07C37.7943 230.667 37.6281 230.092 37.7522 229.589C37.6832 230.66 38.6807 231.398 39.4708 231.313C40.2914 231.239 40.7986 230.276 40.7452 229.428C40.7337 228.559 40.1413 227.887 39.4006 227.638C38.6525 227.382 37.8582 227.521 37.2089 228.015C35.8909 228.999 35.2311 230.938 35.4568 232.699C35.623 234.484 36.7196 236.034 38.2075 236.746C39.6743 237.523 41.4056 237.249 42.9439 236.386C44.5145 235.549 45.9061 234.213 47.3705 232.937C50.2781 230.357 53.2214 227.826 56.2635 225.42Z" fill="#7D6E3A"/>
<path d="M35.4581 225.955C34.1823 225.973 32.9552 225.518 31.9655 224.734C31.0018 223.947 30.1531 222.839 30.017 221.417C29.9632 220.713 30.1393 219.997 30.5537 219.454C30.959 218.898 31.6618 218.637 32.2626 218.787C32.8675 218.901 33.4298 219.511 33.3446 220.216C33.2989 220.558 33.0423 220.854 32.7337 220.87C32.4241 220.885 32.1613 220.545 32.2447 220.243C32.1955 220.552 32.4868 220.813 32.7254 220.764C32.9731 220.721 33.1498 220.448 33.153 220.194C33.1571 219.648 32.6736 219.231 32.205 219.208C31.7172 219.162 31.26 219.413 31.0171 219.842C30.764 220.264 30.6914 220.816 30.787 221.302C30.9835 222.304 31.7596 223.143 32.5988 223.66C33.451 224.182 34.4459 224.392 35.3616 224.255L35.4581 225.955Z" fill="#7D6E3A"/>
<path d="M35.3421 225.984C34.4291 225.826 33.4305 226.017 32.569 226.517C31.7205 227.016 30.9301 227.837 30.7144 228.835C30.6109 229.318 30.6734 229.873 30.9178 230.3C31.1538 230.733 31.6063 230.994 32.0939 230.96C32.5637 230.948 33.0547 230.542 33.0597 229.995C33.0611 229.741 32.8895 229.464 32.6426 229.416C32.405 229.361 32.109 229.615 32.1524 229.925C32.0746 229.622 32.3436 229.288 32.6528 229.31C32.962 229.334 33.2131 229.634 33.2517 229.977C33.3239 230.684 32.7487 231.281 32.1438 231.382C31.5403 231.518 30.8425 231.242 30.4474 230.677C30.0439 230.126 29.88 229.405 29.9467 228.703C30.1106 227.284 30.9785 226.194 31.9564 225.431C32.9602 224.668 34.1953 224.241 35.4706 224.287L35.3421 225.984Z" fill="#7D6E3A"/>
<path d="M31.4115 223.167C31.4343 223.201 31.4655 223.236 31.4958 223.27C32.4151 224.352 33.7645 225.005 35.1122 225.037C33.7641 225.048 32.4031 225.663 31.4642 226.725C31.4333 226.758 31.4015 226.792 31.378 226.826C29.9433 226.188 28.7012 225.647 27.2277 224.992C28.7129 224.372 29.9652 223.789 31.4115 223.167Z" fill="#7D6E3A"/>
<path d="M56.2635 225.42C53.2659 222.949 50.3695 220.351 47.5097 217.71C46.068 216.402 44.702 215.035 43.1471 214.163C41.6248 213.267 39.8989 212.955 38.4181 213.699C36.9176 214.378 35.7929 215.904 35.5941 217.684C35.3362 219.44 35.9604 221.392 37.2601 222.406C37.9003 222.914 38.6919 223.071 39.4445 222.831C40.1896 222.599 40.7942 221.94 40.8216 221.072C40.8904 220.225 40.4009 219.25 39.5828 219.16C38.7953 219.057 37.7826 219.772 37.8321 220.844C37.7173 220.339 37.8939 219.767 38.2366 219.372C38.5792 218.981 39.0598 218.703 39.5954 218.689C40.1414 218.657 40.672 218.983 41.0153 219.435C41.365 219.893 41.5505 220.476 41.5812 221.074C41.6092 221.665 41.4411 222.316 41.0966 222.803C40.7632 223.304 40.2892 223.663 39.7804 223.887C38.7636 224.347 37.522 224.162 36.6088 223.527C34.7295 222.269 33.9084 219.758 34.1395 217.481C34.2538 216.329 34.6635 215.193 35.3187 214.261C35.9702 213.33 36.8356 212.599 37.8117 212.136C38.7878 211.674 39.899 211.525 40.9409 211.665C41.9865 211.809 42.975 212.21 43.8418 212.752C45.5819 213.845 46.9729 215.315 48.3126 216.726C51.0198 219.552 53.6922 222.424 56.2635 225.42Z" fill="#7D6E3A"/>
<path d="M120.177 45.4258C120.26 44.9447 120.509 44.498 120.905 44.2007C121.698 43.6059 122.783 43.8308 123.324 44.7019L123.325 44.7022C123.865 45.573 123.66 46.7658 122.869 47.3608C122.077 47.9556 120.991 47.7307 120.45 46.8596C120.178 46.4238 120.095 45.9083 120.177 45.4258ZM122.843 45.0624C122.483 44.4822 121.76 44.3323 121.232 44.7285C120.705 45.1248 120.569 45.9186 120.929 46.5002C121.289 47.0804 122.012 47.2301 122.541 46.8342C123.068 46.4364 123.204 45.6426 122.843 45.0624Z" fill="#7D6E3A"/>
<path d="M131.246 44.6378C132.405 46.456 132.128 49.2003 130.638 50.6968C129.147 52.193 126.3 52.5466 124.829 50.1802C125.891 51.5974 129.403 49.9456 128.421 47.7992C129.201 48.7182 131.705 47.1199 131.246 44.6378Z" fill="#7D6E3A"/>
<path d="M125.447 53.0587C125.866 54.6545 125.542 56.4966 124.598 57.8952C125.404 57.7473 126.134 57.157 126.501 56.3539C127.501 58.5919 129.312 60.3767 131.444 61.2274C131.501 58.7351 130.647 56.2313 129.114 54.3928C129.928 54.3095 130.694 53.778 131.113 53.0062C129.583 53.4642 127.905 53.124 126.705 52.1148L122.775 47.2754L125.447 53.0587Z" fill="#7D6E3A"/>
<path d="M117.456 54.9853C118.575 56.8333 121.001 57.55 122.812 56.5698C124.623 55.5882 125.959 52.8027 124.49 50.4352C125.304 52.0383 122.626 55.0324 121.164 53.245C121.659 54.3777 119.394 56.3583 117.456 54.9853Z" fill="#7D6E3A"/>
<path d="M132.777 63.4348C129.081 62.7511 125.424 61.904 121.781 60.9997C119.969 60.5597 118.085 60.1047 116.291 59.122C115.399 58.6325 114.548 57.9521 113.857 57.0748C113.172 56.2004 112.667 55.1023 112.475 53.9533C112.283 52.8043 112.355 51.6075 112.698 50.4946C113.039 49.3784 113.671 48.3724 114.479 47.6284C116.074 46.1507 118.429 45.5061 120.425 46.5262C121.413 47.0078 122.241 48.0396 122.459 49.2247C122.572 49.8138 122.564 50.4465 122.37 51.0291C122.193 51.615 121.794 52.1302 121.331 52.4329C120.863 52.7373 120.319 52.8914 119.777 52.826C119.244 52.7652 118.703 52.4597 118.423 51.9432C118.137 51.4443 118.081 50.8525 118.186 50.3218C118.294 49.789 118.628 49.3102 119.075 49.1345C118.236 49.6846 118.256 51.006 118.772 51.6696C119.296 52.3673 120.305 52.2731 120.907 51.74C121.549 51.2326 121.712 50.3139 121.474 49.5041C121.237 48.6829 120.678 48.0469 119.938 47.7442C118.45 47.1192 116.626 47.6336 115.441 48.8446C114.204 50.0154 113.674 51.8911 113.994 53.6395C114.254 55.4061 115.449 56.8098 116.973 57.7029C118.496 58.6398 120.289 59.1299 122.08 59.7193C125.668 60.8643 129.241 62.0691 132.777 63.4348Z" fill="#7D6E3A"/>
<path d="M120.474 44.9876C119.731 43.8475 119.368 42.4814 119.387 41.1404C119.423 39.8217 119.764 38.4228 120.747 37.4865C121.242 37.0352 121.877 36.7843 122.52 36.8471C123.166 36.8946 123.763 37.3787 123.995 38.0057C124.256 38.6164 124.122 39.4723 123.548 39.7987C123.267 39.9529 122.899 39.8913 122.71 39.6222C122.522 39.3517 122.625 38.9204 122.898 38.823C122.639 38.9555 122.611 39.3673 122.784 39.5541C122.958 39.7528 123.263 39.7558 123.454 39.6137C123.864 39.3046 123.899 38.6304 123.648 38.1946C123.403 37.7291 122.954 37.4603 122.495 37.4868C122.036 37.5 121.582 37.7503 121.274 38.1144C120.639 38.8649 120.457 40.0447 120.551 41.0971C120.649 42.1637 121.061 43.181 121.688 43.9277L120.474 44.9876Z" fill="#7D6E3A"/>
<path d="M120.386 44.8991C119.982 43.986 119.268 43.1949 118.402 42.7047C117.544 42.2252 116.479 41.9825 115.611 42.3594C115.191 42.5421 114.813 42.9163 114.634 43.3805C114.446 43.8411 114.51 44.3981 114.814 44.8186C115.092 45.2351 115.676 45.4455 116.088 45.1366C116.278 44.9928 116.386 44.6797 116.281 44.4294C116.186 44.184 115.826 44.0627 115.62 44.2793C115.802 44.0356 116.205 44.0869 116.366 44.3781C116.525 44.6704 116.445 45.0685 116.21 45.2998C115.724 45.7691 114.949 45.5924 114.528 45.105C114.081 44.6388 113.888 43.8516 114.083 43.1726C114.264 42.4935 114.708 41.9335 115.271 41.5914C116.423 40.9276 117.733 41.0862 118.862 41.5311C120.005 41.9996 121.031 42.8685 121.726 44.0441L120.386 44.8991Z" fill="#7D6E3A"/>
<path d="M120.24 39.7446C120.228 39.7845 120.219 39.8326 120.211 39.8793C119.93 41.3272 120.214 42.9174 120.961 44.1506C120.182 42.9415 118.944 42.0667 117.615 41.8278C117.572 41.819 117.528 41.8099 117.49 41.8078C117.145 40.1495 116.838 38.7204 116.484 37.0176C117.796 38.0016 118.948 38.797 120.24 39.7446Z" fill="#7D6E3A"/>
<path d="M132.777 63.4346C132.906 59.3191 133.187 55.222 133.522 51.133C133.673 49.0852 133.912 47.0716 133.673 45.1714C133.471 43.2863 132.717 41.5519 131.314 40.643C129.949 39.6788 128.167 39.5381 126.724 40.3777C125.266 41.1497 124.166 42.8294 124.154 44.5808C124.141 45.4484 124.476 46.252 125.086 46.793C125.686 47.3319 126.524 47.4997 127.187 47.0276C127.858 46.6055 128.305 45.6065 127.905 44.8173C127.531 44.0484 126.418 43.5451 125.647 44.2029C125.958 43.8102 126.485 43.6426 126.976 43.7253C127.464 43.8103 127.947 44.0845 128.264 44.5591C128.6 45.0331 128.66 45.6977 128.519 46.2662C128.377 46.8434 128.049 47.3439 127.62 47.7137C127.195 48.0769 126.613 48.2978 126.052 48.2665C125.488 48.2522 124.949 48.0305 124.491 47.6997C123.566 47.0465 122.993 45.8216 122.945 44.635C122.808 42.2213 124.212 40.0447 126.044 38.9502C126.968 38.3945 128.051 38.1134 129.121 38.171C130.189 38.2252 131.229 38.5873 132.133 39.2024C133.037 39.8175 133.783 40.7341 134.275 41.7533C134.766 42.7781 135.032 43.8985 135.124 44.99C135.303 47.184 135.003 49.2786 134.716 51.2939C134.156 55.3509 133.542 59.4026 132.777 63.4346Z" fill="#7D6E3A"/>
<path d="M118.078 406.152C117.633 406.178 117.179 406.019 116.822 405.666C116.108 404.961 116.05 403.749 116.691 402.964L116.691 402.963C117.333 402.18 118.436 402.115 119.149 402.819C119.863 403.524 119.922 404.736 119.28 405.521C118.96 405.914 118.524 406.126 118.078 406.152ZM117.124 403.392C116.697 403.914 116.736 404.722 117.211 405.192C117.686 405.66 118.42 405.617 118.849 405.095C119.276 404.572 119.237 403.766 118.762 403.295C118.285 402.826 117.551 402.869 117.124 403.392Z" fill="#7D6E3A"/>
<path d="M114.755 394.522C116.087 392.853 118.579 392.497 120.255 393.733C121.931 394.97 122.919 397.925 121.177 400.058C122.177 398.587 119.884 395.229 118.22 396.787C118.847 395.737 116.84 393.442 114.755 394.522Z" fill="#7D6E3A"/>
<path d="M123.574 398.715C124.886 397.89 126.591 397.799 128.051 398.474C127.729 397.648 127.034 397.01 126.237 396.808C127.978 395.21 129.126 392.853 129.372 390.374C127.156 390.905 125.145 392.411 123.884 394.483C123.617 393.634 122.965 392.942 122.184 392.678C122.952 394.203 123.049 396.075 122.442 397.596L119.097 402.94L123.574 398.715Z" fill="#7D6E3A"/>
<path d="M127.173 406.789C128.541 405.156 128.599 402.396 127.303 400.695C126.006 398.995 123.227 398.229 121.483 400.36C122.706 399.11 125.988 401.258 124.755 403.244C125.639 402.447 127.927 404.395 127.173 406.789Z" fill="#7D6E3A"/>
<path d="M131.007 388.427C131.279 392.535 131.398 396.641 131.463 400.745C131.504 402.784 131.549 404.904 131.106 407.052C130.885 408.121 130.486 409.191 129.874 410.136C129.263 411.075 128.413 411.874 127.443 412.352C126.473 412.83 125.398 413.037 124.333 412.935C123.265 412.836 122.226 412.399 121.377 411.714C119.692 410.362 118.564 407.999 118.992 405.627C119.183 404.458 119.899 403.329 120.894 402.815C121.388 402.554 121.949 402.413 122.51 402.481C123.07 402.532 123.62 402.836 123.998 403.258C124.378 403.685 124.643 404.229 124.714 404.824C124.787 405.408 124.645 406.058 124.255 406.478C123.882 406.902 123.372 407.102 122.878 407.117C122.381 407.127 121.879 406.884 121.618 406.45C122.303 407.214 123.466 406.879 123.93 406.171C124.423 405.446 124.1 404.391 123.486 403.875C122.885 403.31 122.034 403.354 121.375 403.801C120.705 404.248 120.276 404.995 120.184 405.857C119.984 407.595 120.872 409.42 122.223 410.398C123.552 411.441 125.335 411.561 126.805 410.805C128.305 410.108 129.262 408.5 129.69 406.661C130.157 404.812 130.165 402.782 130.261 400.73C130.421 396.627 130.639 392.527 131.007 388.427Z" fill="#7D6E3A"/>
<path d="M117.62 405.939C116.789 407.003 115.667 407.715 114.477 408.012C113.303 408.287 111.986 408.255 110.925 407.427C110.409 407.006 110.036 406.387 109.939 405.687C109.828 404.985 110.114 404.233 110.613 403.836C111.091 403.413 111.879 403.353 112.304 403.889C112.507 404.152 112.54 404.56 112.347 404.825C112.153 405.09 111.747 405.082 111.596 404.814C111.774 405.059 112.145 404.991 112.269 404.762C112.403 404.529 112.334 404.203 112.163 404.032C111.792 403.668 111.188 403.791 110.862 404.162C110.509 404.534 110.378 405.077 110.51 405.561C110.631 406.048 110.96 406.473 111.355 406.715C112.169 407.216 113.255 407.131 114.163 406.78C115.082 406.422 115.884 405.741 116.395 404.895L117.62 405.939Z" fill="#7D6E3A"/>
<path d="M117.562 406.054C116.851 406.703 116.321 407.652 116.094 408.693C115.873 409.723 115.911 410.917 116.451 411.755C116.712 412.16 117.132 412.475 117.585 412.556C118.037 412.647 118.514 412.446 118.813 412.022C119.116 411.627 119.163 410.954 118.792 410.587C118.62 410.419 118.318 410.377 118.121 410.549C117.927 410.709 117.905 411.121 118.145 411.29C117.887 411.154 117.837 410.711 118.056 410.47C118.277 410.231 118.647 410.222 118.907 410.418C119.438 410.825 119.465 411.694 119.134 412.26C118.828 412.848 118.178 413.24 117.532 413.193C116.889 413.161 116.288 412.82 115.853 412.301C114.992 411.228 114.822 409.792 114.947 408.481C115.09 407.149 115.615 405.848 116.489 404.826L117.562 406.054Z" fill="#7D6E3A"/>
<path d="M113.041 407.433C113.08 407.437 113.124 407.434 113.167 407.432C114.514 407.389 115.852 406.708 116.765 405.618C115.881 406.737 115.401 408.266 115.506 409.742C115.508 409.789 115.51 409.838 115.517 409.88C114.133 410.641 112.943 411.308 111.522 412.09C112.08 410.456 112.51 409.038 113.041 407.433Z" fill="#7D6E3A"/>
<path d="M131.007 388.428C127.338 389.267 123.65 389.938 119.957 390.551C118.111 390.875 116.274 391.098 114.651 391.804C113.033 392.467 111.679 393.684 111.208 395.397C110.68 397.083 110.978 399.019 112.063 400.36C113.091 401.733 114.837 402.509 116.387 402.107C117.157 401.915 117.788 401.366 118.122 400.587C118.456 399.819 118.405 398.885 117.831 398.288C117.298 397.672 116.309 397.431 115.707 398.046C115.116 398.627 114.935 399.936 115.699 400.603C115.278 400.364 115.005 399.841 114.962 399.297C114.921 398.755 115.049 398.175 115.393 397.724C115.733 397.253 116.306 397.031 116.842 397.047C117.386 397.061 117.906 397.293 118.334 397.663C118.756 398.031 119.09 398.599 119.195 399.206C119.316 399.812 119.248 400.44 119.064 401.007C118.707 402.15 117.76 403.052 116.722 403.385C114.621 404.104 112.364 403.121 110.962 401.425C110.252 400.57 109.746 399.481 109.543 398.325C109.338 397.172 109.411 395.975 109.74 394.864C110.07 393.753 110.703 392.739 111.487 391.972C112.276 391.205 113.203 390.654 114.147 390.298C116.043 389.586 117.966 389.41 119.816 389.238C123.534 388.873 127.261 388.567 131.007 388.428Z" fill="#7D6E3A"/>
<path d="M385.516 221.677C385.834 222.02 386.034 222.495 386.039 223.023C386.048 224.077 385.275 224.944 384.316 224.955L384.315 224.956C383.356 224.966 382.567 224.116 382.556 223.063C382.547 222.008 383.32 221.141 384.279 221.13C384.76 221.124 385.197 221.334 385.516 221.677ZM384.31 224.316C384.949 224.309 385.464 223.731 385.458 223.028C385.45 222.327 384.925 221.761 384.285 221.767C383.646 221.775 383.132 222.352 383.137 223.055C383.146 223.758 383.671 224.323 384.31 224.316Z" fill="#7D6E3A"/>
<path d="M379.964 232.231C377.945 232.28 376.022 230.503 375.717 228.31C375.413 226.117 376.727 223.318 379.334 223.288C377.672 223.471 376.971 227.599 379.141 227.893C378.012 228.095 377.831 231.272 379.964 232.231Z" fill="#7D6E3A"/>
<path d="M376.813 222.254C375.374 221.75 374.16 220.431 373.626 218.791C373.29 219.611 373.331 220.605 373.735 221.386C371.486 221.057 369.13 221.721 367.302 223.197C369.156 224.634 371.525 225.244 373.767 224.864C373.378 225.655 373.355 226.65 373.706 227.461C374.21 225.808 375.399 224.464 376.829 223.928L382.674 223.024L376.813 222.254Z" fill="#7D6E3A"/>
<path d="M379.794 213.881C377.774 213.877 375.885 215.696 375.62 217.895C375.357 220.096 376.723 222.864 379.33 222.836C377.665 222.69 376.887 218.58 379.051 218.236C377.92 218.059 377.679 214.889 379.794 213.881Z" fill="#7D6E3A"/>
<path d="M364.891 223.19C367.461 220.192 370.133 217.32 372.841 214.493C374.181 213.081 375.571 211.612 377.311 210.518C378.177 209.975 379.165 209.575 380.212 209.431C381.254 209.291 382.365 209.439 383.341 209.902C384.318 210.364 385.183 211.095 385.835 212.027C386.49 212.958 386.9 214.095 387.014 215.246C387.247 217.524 386.426 220.035 384.546 221.292C383.633 221.928 382.392 222.111 381.374 221.652C380.865 221.429 380.391 221.07 380.058 220.569C379.713 220.082 379.545 219.431 379.573 218.84C379.603 218.243 379.788 217.66 380.139 217.201C380.481 216.748 381.013 216.423 381.559 216.455C382.095 216.47 382.574 216.748 382.917 217.138C383.26 217.533 383.437 218.104 383.322 218.61C383.371 217.538 382.361 216.822 381.572 216.925C380.753 217.016 380.264 217.991 380.333 218.838C380.36 219.706 380.965 220.365 381.71 220.597C382.463 220.837 383.254 220.679 383.894 220.171C385.194 219.158 385.818 217.205 385.56 215.45C385.361 213.669 384.236 212.143 382.735 211.464C381.254 210.72 379.528 211.033 378.006 211.93C376.452 212.801 375.085 214.168 373.644 215.477C370.785 218.12 367.889 220.717 364.891 223.19Z" fill="#7D6E3A"/>
<path d="M385.683 222.192C386.958 222.146 388.193 222.573 389.197 223.336C390.175 224.101 391.044 225.189 391.206 226.608C391.273 227.311 391.11 228.03 390.706 228.583C390.311 229.147 389.613 229.424 389.009 229.288C388.403 229.187 387.829 228.589 387.901 227.883C387.941 227.54 388.192 227.238 388.5 227.216C388.809 227.194 389.078 227.528 389.001 227.831C389.044 227.521 388.748 227.267 388.51 227.321C388.263 227.37 388.092 227.647 388.093 227.9C388.099 228.447 388.59 228.853 389.059 228.866C389.548 228.9 390 228.64 390.235 228.205C390.48 227.778 390.543 227.224 390.438 226.741C390.224 225.743 389.432 224.921 388.584 224.423C387.722 223.92 386.723 223.732 385.81 223.89L385.683 222.192Z" fill="#7D6E3A"/>
<path d="M385.798 222.161C386.714 222.298 387.709 222.086 388.561 221.566C389.4 221.049 390.175 220.21 390.372 219.207C390.467 218.722 390.394 218.168 390.142 217.747C389.898 217.319 389.441 217.069 388.954 217.113C388.485 217.136 388.001 217.552 388.006 218.1C388.009 218.354 388.186 218.627 388.434 218.67C388.672 218.719 388.964 218.458 388.915 218.149C388.998 218.451 388.735 218.791 388.426 218.776C388.116 218.759 387.859 218.464 387.815 218.122C387.729 217.417 388.293 216.807 388.896 216.692C389.497 216.543 390.2 216.804 390.605 217.359C391.019 217.902 391.196 218.618 391.142 219.323C391.005 220.745 390.157 221.854 389.193 222.638C388.204 223.423 386.977 223.878 385.701 223.86L385.798 222.161Z" fill="#7D6E3A"/>
<path d="M389.78 224.89C389.756 224.856 389.724 224.822 389.694 224.789C388.755 223.727 387.393 223.104 386.045 223.102C387.393 223.061 388.742 222.416 389.662 221.334C389.692 221.3 389.723 221.265 389.746 221.231C391.192 221.837 392.444 222.35 393.929 222.972C392.456 223.625 391.214 224.235 389.78 224.89Z" fill="#7D6E3A"/>
<path d="M364.891 223.19C367.934 225.593 370.878 228.126 373.785 230.703C375.251 231.979 376.642 233.316 378.212 234.152C379.751 235.015 381.482 235.289 382.949 234.512C384.437 233.8 385.533 232.249 385.699 230.464C385.925 228.703 385.265 226.765 383.946 225.781C383.297 225.287 382.503 225.147 381.755 225.404C381.014 225.653 380.422 226.325 380.41 227.194C380.357 228.042 380.864 229.005 381.684 229.078C382.473 229.163 383.472 228.425 383.403 227.355C383.527 227.858 383.361 228.433 383.026 228.836C382.691 229.234 382.215 229.523 381.68 229.549C381.135 229.593 380.598 229.279 380.247 228.834C379.889 228.384 379.692 227.806 379.651 227.208C379.612 226.618 379.768 225.964 380.103 225.468C380.428 224.961 380.895 224.591 381.399 224.356C382.407 223.874 383.652 224.031 384.577 224.646C386.479 225.862 387.346 228.353 387.157 230.635C387.064 231.789 386.675 232.935 386.037 233.881C385.403 234.826 384.551 235.576 383.584 236.06C382.617 236.545 381.508 236.718 380.464 236.601C379.416 236.481 378.42 236.102 377.544 235.579C375.784 234.525 374.366 233.086 373.001 231.705C370.242 228.94 367.517 226.128 364.891 223.19Z" fill="#7D6E3A"/>
<path d="M306.643 403.248C306.642 403.737 306.472 404.227 306.133 404.599C305.453 405.344 304.348 405.341 303.671 404.594L303.67 404.594C302.994 403.847 302.995 402.633 303.674 401.889C304.354 401.144 305.458 401.146 306.136 401.893C306.476 402.267 306.644 402.757 306.643 403.248ZM304.083 404.143C304.534 404.64 305.27 404.642 305.723 404.146C306.175 403.65 306.176 402.842 305.725 402.343C305.274 401.846 304.539 401.844 304.085 402.34C303.633 402.837 303.632 403.645 304.083 404.143Z" fill="#7D6E3A"/>
<path d="M295.894 406.255C294.452 404.701 294.265 401.948 295.479 400.176C296.696 398.405 299.435 397.483 301.276 399.513C299.996 398.334 296.819 400.666 298.143 402.578C297.223 401.831 295.028 403.908 295.894 406.255Z" fill="#7D6E3A"/>
<path d="M300.188 396.808C299.511 395.323 299.522 393.447 300.216 391.882C299.448 392.19 298.829 392.917 298.603 393.781C297.246 391.782 295.168 390.393 292.93 389.987C293.29 392.448 294.548 394.737 296.361 396.236C295.575 396.482 294.911 397.159 294.627 398.002C296.055 397.243 297.761 397.239 299.109 397.989L303.781 401.954L300.188 396.808Z" fill="#7D6E3A"/>
<path d="M307.722 393.302C306.314 391.711 303.809 391.496 302.193 392.825C300.577 394.155 299.728 397.162 301.568 399.193C300.5 397.782 302.632 394.298 304.368 395.76C303.692 394.747 305.588 392.343 307.722 393.302Z" fill="#7D6E3A"/>
<path d="M291.251 388.086C294.998 388.013 298.734 388.108 302.466 388.262C304.321 388.329 306.25 388.396 308.177 389.001C309.136 389.302 310.086 389.799 310.911 390.522C311.73 391.244 312.41 392.221 312.791 393.312C313.171 394.403 313.301 395.594 313.149 396.757C313.001 397.923 312.547 399.039 311.877 399.934C310.556 401.708 308.348 402.817 306.216 402.216C305.165 401.942 304.178 401.095 303.766 399.974C303.556 399.418 303.459 398.794 303.552 398.182C303.629 397.57 303.935 396.983 304.339 396.593C304.749 396.199 305.257 395.938 305.801 395.893C306.336 395.845 306.918 396.036 307.279 396.488C307.644 396.92 307.798 397.491 307.784 398.034C307.766 398.579 307.517 399.117 307.108 399.38C307.84 398.67 307.6 397.375 306.983 396.827C306.351 396.247 305.374 396.543 304.871 397.188C304.325 397.817 304.319 398.752 304.688 399.5C305.058 400.26 305.713 400.772 306.491 400.921C308.059 401.235 309.766 400.361 310.729 398.932C311.749 397.532 311.956 395.581 311.35 393.927C310.8 392.243 309.391 391.104 307.743 390.533C306.09 389.919 304.245 389.799 302.387 389.581C298.668 389.179 294.955 388.715 291.251 388.086Z" fill="#7D6E3A"/>
<path d="M306.425 403.739C307.345 404.709 307.93 405.979 308.135 407.301C308.32 408.605 308.218 410.049 307.408 411.167C306.997 411.711 306.415 412.085 305.773 412.153C305.13 412.237 304.462 411.881 304.129 411.312C303.771 410.764 303.759 409.896 304.269 409.459C304.52 409.251 304.892 409.237 305.122 409.464C305.353 409.692 305.323 410.137 305.071 410.287C305.303 410.105 305.262 409.694 305.061 409.546C304.857 409.386 304.556 409.444 304.392 409.622C304.041 410.009 304.119 410.679 304.438 411.056C304.757 411.465 305.243 411.638 305.69 411.52C306.14 411.414 306.544 411.076 306.786 410.656C307.285 409.791 307.267 408.594 306.999 407.578C306.724 406.55 306.149 405.633 305.409 405.025L306.425 403.739Z" fill="#7D6E3A"/>
<path d="M306.526 403.808C307.076 404.624 307.909 405.258 308.843 405.565C309.766 405.863 310.853 405.887 311.644 405.341C312.026 405.077 312.336 404.633 312.434 404.141C312.542 403.65 312.385 403.115 312.017 402.763C311.674 402.41 311.065 402.321 310.712 402.707C310.549 402.887 310.495 403.217 310.64 403.442C310.774 403.664 311.148 403.71 311.315 403.456C311.177 403.732 310.772 403.763 310.565 403.509C310.36 403.254 310.372 402.846 310.564 402.572C310.963 402.012 311.754 402.03 312.25 402.424C312.767 402.792 313.088 403.527 313.01 404.234C312.946 404.938 312.603 405.578 312.107 406.028C311.085 406.913 309.771 407.021 308.587 406.811C307.384 406.581 306.231 405.934 305.351 404.919L306.526 403.808Z" fill="#7D6E3A"/>
<path d="M307.531 408.845C307.536 408.804 307.536 408.755 307.536 408.707C307.571 407.227 307.026 405.721 306.086 404.66C307.054 405.691 308.416 406.301 309.763 406.268C309.806 406.268 309.851 406.268 309.889 406.263C310.505 407.823 311.045 409.166 311.678 410.768C310.223 410.066 308.959 409.516 307.531 408.845Z" fill="#7D6E3A"/>
<path d="M291.251 388.086C291.811 392.158 292.219 396.242 292.572 400.329C292.765 402.373 292.867 404.4 293.419 406.22C293.933 408.032 294.964 409.585 296.494 410.196C297.997 410.868 299.773 410.647 301.051 409.531C302.354 408.478 303.155 406.605 302.875 404.881C302.743 404.025 302.279 403.303 301.589 402.894C300.91 402.485 300.058 402.489 299.485 403.087C298.896 403.637 298.623 404.71 299.148 405.405C299.644 406.085 300.823 406.355 301.471 405.553C301.231 406.002 300.74 406.273 300.244 406.291C299.75 406.306 299.23 406.133 298.839 405.731C298.429 405.333 298.259 404.692 298.303 404.104C298.346 403.508 298.585 402.95 298.945 402.5C299.302 402.057 299.837 401.723 300.394 401.64C300.951 401.541 301.518 401.65 302.023 401.883C303.042 402.338 303.809 403.427 304.055 404.583C304.592 406.929 303.575 409.351 301.958 410.797C301.142 411.529 300.124 412.024 299.063 412.183C298.004 412.345 296.921 412.199 295.93 411.777C294.939 411.354 294.052 410.604 293.398 409.701C292.744 408.793 292.295 407.745 292.023 406.691C291.48 404.57 291.426 402.451 291.372 400.412C291.245 396.311 291.172 392.204 291.251 388.086Z" fill="#7D6E3A"/>
<path d="M304.543 45.2861C304.988 45.2663 305.44 45.4321 305.793 45.7896C306.498 46.5047 306.543 47.7174 305.892 48.4928L305.892 48.4943C305.242 49.2683 304.138 49.3174 303.433 48.6038C302.727 47.8887 302.682 46.676 303.333 45.9005C303.658 45.5114 304.096 45.306 304.543 45.2861ZM305.464 48.0594C305.898 47.543 305.868 46.7344 305.398 46.2582C304.928 45.7834 304.194 45.8161 303.759 46.3326C303.326 46.849 303.356 47.6561 303.826 48.1338C304.297 48.6085 305.031 48.5759 305.464 48.0594Z" fill="#7D6E3A"/>
<path d="M307.731 56.962C306.379 58.6116 303.884 58.933 302.222 57.674C300.561 56.4136 299.607 53.4443 301.374 51.3367C300.356 52.7928 302.611 56.1826 304.293 54.648C303.653 55.6895 305.633 58.0121 307.731 56.962Z" fill="#7D6E3A"/>
<path d="M298.961 52.646C297.64 53.4527 295.934 53.52 294.482 52.8237C294.794 53.6543 295.482 54.3024 296.276 54.5149C294.517 56.089 293.342 58.4297 293.067 60.9046C295.29 60.4051 297.317 58.9271 298.603 56.8726C298.86 57.7258 299.503 58.4263 300.281 58.7015C299.531 57.1656 299.456 55.2928 300.08 53.7807L303.487 48.4831L298.961 52.646Z" fill="#7D6E3A"/>
<path d="M295.456 44.5219C294.069 46.1357 293.979 48.8949 295.255 50.6134C296.533 52.3319 299.303 53.1366 301.071 51.0304C299.833 52.2628 296.577 50.069 297.832 48.1008C296.939 48.8856 294.674 46.9056 295.456 44.5219Z" fill="#7D6E3A"/>
<path d="M291.41 62.8287C291.185 58.7174 291.114 54.6108 291.096 50.5061C291.079 48.4663 291.058 46.346 291.526 44.204C291.76 43.1388 292.171 42.0743 292.794 41.1373C293.415 40.2076 294.275 39.42 295.251 38.9558C296.226 38.4916 297.303 38.2995 298.367 38.4164C299.433 38.5304 300.467 38.9815 301.309 39.679C302.977 41.0544 304.079 43.432 303.623 45.7983C303.418 46.9646 302.69 48.0835 301.688 48.5835C301.191 48.8376 300.628 48.9707 300.068 48.8948C299.509 48.8361 298.963 48.5246 298.59 48.0974C298.215 47.6645 297.956 47.1169 297.892 46.5217C297.826 45.9367 297.975 45.2888 298.37 44.8735C298.748 44.4546 299.26 44.2618 299.754 44.2542C300.251 44.2509 300.751 44.501 301.007 44.9392C300.331 44.1652 299.164 44.4837 298.691 45.1849C298.191 45.9032 298.501 46.963 299.109 47.4878C299.703 48.0608 300.554 48.0287 301.219 47.5913C301.894 47.1535 302.332 46.412 302.434 45.5515C302.653 43.8168 301.787 41.9792 300.447 40.9825C299.131 39.9215 297.349 39.776 295.87 40.5119C294.363 41.1871 293.387 42.7825 292.938 44.6153C292.45 46.457 292.418 48.4874 292.298 50.5375C292.09 54.6379 291.826 58.735 291.41 62.8287Z" fill="#7D6E3A"/>
<path d="M304.998 45.505C305.842 44.453 306.971 43.7571 308.165 43.4763C309.342 43.2179 310.659 43.2687 311.71 44.1111C312.221 44.5394 312.586 45.1629 312.675 45.8651C312.779 46.568 312.484 47.3161 311.98 47.7059C311.497 48.1223 310.708 48.1718 310.29 47.6299C310.09 47.3635 310.062 46.9555 310.258 46.6932C310.455 46.4308 310.861 46.4444 311.009 46.7145C310.833 46.4673 310.462 46.5299 310.335 46.7575C310.198 46.9884 310.264 47.3154 310.433 47.4881C310.799 47.8579 311.404 47.7431 311.734 47.3768C312.092 47.0092 312.229 46.4685 312.103 45.9828C311.988 45.4936 311.664 45.0642 311.272 44.8165C310.463 44.3049 309.376 44.3749 308.464 44.7123C307.541 45.0575 306.732 45.7276 306.211 46.5664L304.998 45.505Z" fill="#7D6E3A"/>
<path d="M305.057 45.3914C305.775 44.7528 306.316 43.8108 306.556 42.7726C306.788 41.7464 306.764 40.5514 306.235 39.706C305.978 39.2981 305.561 38.9766 305.11 38.89C304.659 38.7919 304.18 38.9862 303.875 39.4061C303.568 39.7973 303.513 40.4699 303.88 40.8412C304.05 41.0123 304.352 41.0579 304.55 40.8892C304.746 40.732 304.773 40.3201 304.535 40.1477C304.791 40.2876 304.837 40.7309 304.615 40.9684C304.391 41.2046 304.02 41.2082 303.762 41.0092C303.237 40.5946 303.22 39.725 303.557 39.1638C303.87 38.5807 304.524 38.197 305.17 38.2533C305.813 38.2939 306.409 38.6434 306.839 39.169C307.687 40.2538 307.841 41.6923 307.7 43.0013C307.542 44.3312 307.002 45.6247 306.116 46.634L305.057 45.3914Z" fill="#7D6E3A"/>
<path d="M309.594 44.0751C309.556 44.071 309.511 44.073 309.468 44.0749C308.121 44.0988 306.775 44.7611 305.85 45.8384C306.746 44.7321 307.244 43.2099 307.156 41.7324C307.155 41.6849 307.153 41.636 307.146 41.5945C308.539 40.8523 309.737 40.2024 311.167 39.4399C310.59 41.0666 310.143 42.4785 309.594 44.0751Z" fill="#7D6E3A"/>
<path d="M291.41 62.8286C295.088 62.0409 298.783 61.4211 302.484 60.8601C304.334 60.5616 306.172 60.3645 307.803 59.6809C309.429 59.0408 310.797 57.8429 311.288 56.1365C311.836 54.4578 311.559 52.5175 310.491 51.1615C309.478 49.7742 307.742 48.9739 306.186 49.3544C305.414 49.5358 304.777 50.0757 304.435 50.8504C304.092 51.6135 304.131 52.5484 304.699 53.1529C305.224 53.7765 306.21 54.0309 306.82 53.4245C307.418 52.8517 307.614 51.5461 306.857 50.8679C307.275 51.113 307.542 51.64 307.579 52.1845C307.614 52.7263 307.479 53.3044 307.13 53.7508C306.785 54.2172 306.21 54.4316 305.674 54.4079C305.13 54.386 304.612 54.1467 304.188 53.7708C303.771 53.3974 303.444 52.824 303.345 52.2159C303.231 51.6086 303.307 50.9813 303.497 50.4166C303.868 49.2789 304.825 48.3904 305.866 48.0717C307.976 47.3827 310.221 48.3967 311.603 50.1119C312.304 50.977 312.797 52.0734 312.986 53.2321C313.178 54.3879 313.091 55.5835 312.749 56.6896C312.407 57.7957 311.762 58.8014 310.969 59.5572C310.171 60.3133 309.238 60.8506 308.29 61.1939C306.386 61.8796 304.461 62.0287 302.61 62.1745C298.887 62.4872 295.157 62.7411 291.41 62.8286Z" fill="#7D6E3A"/>
<path fill-rule="evenodd" clip-rule="evenodd" d="M209.5 402.068C289.28 402.068 354.134 323.129 354.134 225.5C354.134 127.871 289.28 48.9318 209.5 48.9318C129.72 48.9318 64.8661 127.871 64.8661 225.5C64.8661 323.129 129.72 402.068 209.5 402.068ZM209.5 403C289.857 403 355 323.531 355 225.5C355 127.469 289.857 48 209.5 48C129.143 48 64 127.469 64 225.5C64 323.531 129.143 403 209.5 403Z" fill="#7D6E3A"/>
</svg>
