<svg width="136" height="19" viewBox="0 0 136 19" fill="none" xmlns="http://www.w3.org/2000/svg">
<path d="M96.3828 10.1507C96.0245 10.1189 95.686 10.231 92.9004 11.3091C90.3434 12.2991 86.8093 13.73 85.3744 14.3564C85.0141 14.5136 84.7137 14.6294 84.7048 14.619C84.6929 14.6053 84.6861 14.5069 84.6835 14.3931C84.6769 14.0331 84.4438 13.6731 84.0429 13.4008C83.483 13.0152 82.8029 12.8229 82.0745 12.8466C80.5673 12.8858 79.6575 13.7367 80.1264 14.6714C80.501 15.4267 81.8601 15.8806 83.1668 15.6799C83.5303 15.627 83.7673 15.5587 84.5664 15.2645C85.6036 14.8831 86.2329 14.6039 88.1365 13.6637C89.4744 13.0058 89.7397 12.8898 89.7844 12.9414C89.8737 13.0447 89.798 13.5008 89.6429 13.7946C89.3067 14.4429 88.6423 14.9835 87.68 15.391C87.2906 15.5549 86.9812 15.6603 86.7229 15.714C86.3642 15.7926 86.338 15.8026 86.3887 15.8612C86.4839 15.9713 87.6064 15.7086 88.5272 15.3537C89.7745 14.873 90.3422 14.4018 91.305 13.0485C91.7375 12.4412 91.8442 12.3129 91.9173 12.3168C91.9393 12.3221 91.993 12.4345 92.0295 12.5673C92.2462 13.4018 91.5204 14.4251 90.1916 15.1438C89.6242 15.4542 89.2519 15.5977 88.6076 15.7588C88.3356 15.8269 88.0993 15.8858 88.0927 15.8883C88.0927 15.8883 88.1261 15.9168 88.1784 15.9471C88.2706 16.0034 88.3318 15.9936 89.3236 15.7812C89.4851 15.7465 89.937 15.6045 90.3277 15.4723C91.8554 14.9432 92.5821 14.374 93.683 12.8481C94.5955 11.5876 94.9175 11.2754 95.8896 10.708C96.6071 10.2892 96.6996 10.1847 96.3828 10.1507Z" fill="#7D6E3A"/>
<path d="M41.3723 8.11288C41.7307 8.14461 42.0691 8.03254 44.8547 6.95443C47.4117 5.96441 50.9459 4.53357 52.3807 3.90718C52.741 3.74995 53.0414 3.63418 53.0504 3.64451C53.0623 3.65828 53.069 3.75667 53.0716 3.87041C53.0783 4.23045 53.3113 4.59047 53.7123 4.8628C54.2721 5.24832 54.9522 5.44064 55.6806 5.41697C57.1879 5.37771 58.0976 4.52681 57.6288 3.59214C57.2541 2.83688 55.895 2.38299 54.5883 2.58364C54.2248 2.63653 53.9878 2.70489 53.1887 2.99909C52.1515 3.38045 51.5222 3.65967 49.6187 4.59982C48.2808 5.25771 48.0154 5.37375 47.9707 5.32211C47.8814 5.21883 47.9572 4.76278 48.1122 4.46892C48.4484 3.8207 49.1128 3.28008 50.0751 2.87251C50.4646 2.70866 50.7739 2.60321 51.0323 2.54955C51.391 2.47098 51.4171 2.46091 51.3665 2.40239C51.2712 2.29223 50.1488 2.55496 49.2279 2.90983C47.9806 3.39053 47.4129 3.86175 46.4501 5.21505C46.0176 5.82237 45.9109 5.9507 45.8378 5.94674C45.8158 5.94144 45.7621 5.82903 45.7256 5.69622C45.5089 4.86175 46.2347 3.83846 47.5636 3.11979C48.1309 2.80933 48.5032 2.66588 49.1475 2.50477C49.4195 2.43667 49.6559 2.37772 49.6624 2.3752C49.6624 2.3752 49.6291 2.34674 49.5767 2.31642C49.4845 2.26015 49.4233 2.26996 48.4315 2.48235C48.27 2.51707 47.8181 2.65908 47.4274 2.79128C45.8997 3.32036 45.173 3.88958 44.0721 5.41544C43.1596 6.67591 42.8376 6.98819 41.8655 7.5556C41.1481 7.9744 41.0556 8.07889 41.3723 8.11288Z" fill="#7D6E3A"/>
<path d="M108.845 7.73053C108.668 7.26135 108.112 6.83582 107.204 6.45938C106.551 6.19206 105.068 5.76653 104.221 5.5974C102.757 5.30826 102.28 5.26462 100.692 5.27007C99.2803 5.27007 99.0597 5.28644 96.995 5.53194C95.7862 5.66833 94.7715 5.76653 94.7362 5.74471C94.701 5.72288 93.598 4.89364 92.2922 3.90073C90.9775 2.91327 89.6363 1.94218 89.3011 1.74578C87.4482 0.665578 84.7041 0 82.1277 0C79.3483 0.00545556 76.9219 0.758323 75.2278 2.13858C74.6013 2.65686 73.8249 3.61158 73.5161 4.24443C73.2514 4.80635 73.0308 5.69015 73.0308 6.21934C73.0308 6.63942 73.2514 7.66506 73.3837 7.88329C73.4278 7.95966 73.4367 8.02513 73.4014 8.0415C73.269 8.0906 70.322 8.40156 69.6779 8.4343C68.2838 8.50522 67.0574 8.21062 66.0162 7.55595C65.3456 7.13587 64.7545 6.50303 64.5163 5.94656C64.3398 5.54831 64.2692 4.83908 64.3663 4.50084L64.4368 4.22806L64.7104 4.56085C65.0545 4.97002 65.8133 5.41192 66.378 5.53194C67.0221 5.66833 67.9485 5.64651 68.5044 5.48829C70.8338 4.81726 70.8426 2.58048 68.5132 1.86035C68.0632 1.7185 67.8691 1.69122 67.3485 1.69122C66.4044 1.69122 65.9456 1.81125 65.2574 2.24224C64.181 2.91872 63.6869 3.70433 63.6163 4.82817C63.5722 5.43374 63.5986 5.61377 63.7574 6.00112C64.2692 7.27226 65.6368 8.29245 67.4721 8.76709C68.0103 8.90893 68.1338 8.91439 69.325 8.91439C70.3397 8.91439 70.8514 8.88711 71.7955 8.77254C72.4484 8.69616 73.1543 8.61433 73.3573 8.59251L73.7367 8.55432L73.9484 8.85983C74.4602 9.57451 75.4396 10.371 76.3219 10.7747C77.5219 11.3367 78.7042 11.5822 80.1777 11.5822C81.6159 11.5876 82.7982 11.3476 83.8835 10.8293C85.2511 10.1746 85.9923 9.25809 86.1952 7.94875C86.2482 7.58323 86.3099 7.27226 86.3188 7.26135C86.3364 7.25044 87.5276 7.11405 88.9658 6.95584L91.5863 6.6667L92.4951 7.22862C94.6745 8.57614 96.8362 9.3672 99.3685 9.75454C100.348 9.90184 102.863 9.88548 104.133 9.71635C106.63 9.38902 108.36 8.88711 108.765 8.37429C108.959 8.12879 108.968 8.04695 108.845 7.73053ZM105.148 8.64161C104.989 8.90347 104.451 9.20899 103.939 9.32901C102.518 9.65634 101.054 9.4654 99.5009 8.75072C98.2391 8.16697 95.5039 6.37755 95.6892 6.26298C95.7862 6.20297 97.3744 6.00112 98.6538 5.89201C100.048 5.77198 101.513 5.93019 102.783 6.33936C103.63 6.60668 104.733 7.25044 105.033 7.63778C105.245 7.90511 105.298 8.40156 105.148 8.64161ZM90.1746 6.29572C88.5687 6.48121 86.9982 6.65033 86.5746 6.68306L86.1247 6.72125L85.9129 6.26844C85.2864 4.92092 83.8747 3.9771 82.0659 3.68796C81.0159 3.51884 79.7895 3.60067 78.8719 3.89527L78.4572 4.03166L78.863 4.03711C80.4248 4.04257 81.9689 4.59358 82.7188 5.40646C83.2659 6.00657 83.7159 7.03767 83.4335 7.03767C83.3629 7.03767 82.8777 7.08677 82.3394 7.14678C79.2777 7.49048 74.4249 7.97057 74.3102 7.94875C74.2484 7.93238 74.0808 7.71416 73.9484 7.46321C73.719 7.04313 73.7014 6.95038 73.7014 6.08295C73.6925 4.97547 73.8249 4.63177 74.5749 3.6825C76.4984 1.28206 80.4424 0.480089 84.1482 1.72941C86.0099 2.35135 87.2011 3.09876 89.7334 5.19369C90.2981 5.66287 90.8099 6.06658 90.854 6.08295C91.0569 6.15933 90.8981 6.20843 90.1746 6.29572ZM83.3541 8.40156C82.6482 9.89093 80.0365 10.8729 77.963 10.431C76.966 10.2128 75.9072 9.6618 75.1396 8.96349C74.6896 8.55432 74.6278 8.45612 74.8219 8.45612C74.9102 8.45612 76.4101 8.30336 81.8983 7.72507C82.6306 7.6487 83.31 7.57232 83.4247 7.55595C83.6276 7.52322 83.6276 7.53413 83.5747 7.78508C83.5482 7.92693 83.4424 8.20516 83.3541 8.40156Z" fill="#7D6E3A"/>
<path d="M27.186 10.577C27.3624 11.0461 27.9183 11.4717 28.8271 11.8481C29.48 12.1154 30.9624 12.541 31.8094 12.7101C33.2741 12.9992 33.7505 13.0429 35.3387 13.0374C36.7505 13.0374 36.9711 13.0211 39.0357 12.7756C40.2445 12.6392 41.2592 12.541 41.2945 12.5628C41.3298 12.5846 42.4327 13.4139 43.7386 14.4068C45.0533 15.3942 46.3944 16.3653 46.7297 16.5617C48.5826 17.6419 51.3267 18.3075 53.9031 18.3075C56.6824 18.302 59.1089 17.5492 60.803 16.1689C61.4294 15.6506 62.2059 14.6959 62.5147 14.0631C62.7794 13.5011 63 12.6173 63 12.0882C63 11.6681 62.7794 10.6424 62.647 10.4242C62.6029 10.3478 62.5941 10.2824 62.6294 10.266C62.7617 10.2169 65.7087 9.90593 66.3528 9.8732C67.7469 9.80228 68.9734 10.0969 70.0145 10.7515C70.6851 11.1716 71.2763 11.8045 71.5145 12.3609C71.691 12.7592 71.7616 13.4684 71.6645 13.8067L71.5939 14.0794L71.3204 13.7466C70.9763 13.3375 70.2175 12.8956 69.6528 12.7756C69.0087 12.6392 68.0822 12.661 67.5264 12.8192C65.197 13.4902 65.1882 15.727 67.5175 16.4471C67.9675 16.589 68.1616 16.6163 68.6822 16.6163C69.6263 16.6163 70.0851 16.4962 70.7733 16.0653C71.8498 15.3888 72.3439 14.6032 72.4145 13.4793C72.4586 12.8738 72.4321 12.6937 72.2733 12.3064C71.7616 11.0352 70.3939 10.015 68.5587 9.54041C68.0205 9.39856 67.8969 9.39311 66.7058 9.39311C65.6911 9.39311 65.1793 9.42039 64.2352 9.53495C63.5823 9.61133 62.8764 9.69316 62.6735 9.71499L62.2941 9.75318L62.0823 9.44767C61.5706 8.73299 60.5912 7.93647 59.7089 7.53276C58.5089 6.97084 57.3266 6.72534 55.8531 6.72534C54.4148 6.71988 53.2325 6.95993 52.1472 7.47821C50.7796 8.13287 50.0385 9.04941 49.8355 10.3587C49.7826 10.7243 49.7208 11.0352 49.712 11.0461C49.6943 11.0571 48.5032 11.1934 47.065 11.3517L44.4445 11.6408L43.5356 11.0789C41.3563 9.73135 39.1946 8.9403 36.6623 8.55295C35.6829 8.40565 33.1682 8.42202 31.8976 8.59114C29.4006 8.91848 27.6712 9.42039 27.2654 9.93321C27.0713 10.1787 27.0624 10.2605 27.186 10.577ZM30.8829 9.66589C31.0418 9.40402 31.58 9.09851 32.0918 8.97849C33.5123 8.65115 34.977 8.8421 36.5299 9.55678C37.7916 10.1405 40.5269 11.9299 40.3416 12.0445C40.2445 12.1045 38.6563 12.3064 37.3769 12.4155C35.9829 12.5355 34.5182 12.3773 33.2476 11.9681C32.4006 11.7008 31.2976 11.0571 30.9977 10.6697C30.7859 10.4024 30.733 9.90593 30.8829 9.66589ZM45.8562 12.0118C47.462 11.8263 49.0326 11.6572 49.4561 11.6244L49.9061 11.5862L50.1179 12.0391C50.7443 13.3866 52.1561 14.3304 53.9649 14.6195C55.0148 14.7887 56.2413 14.7068 57.1589 14.4122L57.5736 14.2758L57.1677 14.2704C55.606 14.2649 54.0619 13.7139 53.3119 12.901C52.7649 12.3009 52.3149 11.2698 52.5972 11.2698C52.6678 11.2698 53.1531 11.2207 53.6913 11.1607C56.753 10.817 61.6059 10.3369 61.7206 10.3587C61.7823 10.3751 61.95 10.5933 62.0823 10.8443C62.3117 11.2644 62.3294 11.3571 62.3294 12.2245C62.3382 13.332 62.2059 13.6757 61.4559 14.625C59.5324 17.0254 55.5884 17.8274 51.8825 16.5781C50.0208 15.9561 48.8297 15.2087 46.2974 13.1138C45.7327 12.6446 45.2209 12.2409 45.1768 12.2245C44.9739 12.1482 45.1327 12.0991 45.8562 12.0118ZM52.6766 9.90593C53.3825 8.41656 55.9942 7.43456 58.0677 7.87646C59.0648 8.09469 60.1236 8.6457 60.8912 9.34401C61.3412 9.75318 61.4029 9.85138 61.2088 9.85138C61.1206 9.85138 59.6206 10.0041 54.1325 10.5824C53.4002 10.6588 52.7208 10.7352 52.6061 10.7515C52.4031 10.7843 52.4031 10.7734 52.4561 10.5224C52.4825 10.3806 52.5884 10.1023 52.6766 9.90593Z" fill="#7D6E3A"/>
<path d="M27.186 10.577C27.3624 11.0461 27.9183 11.4717 28.8271 11.8481C29.48 12.1154 30.9624 12.541 31.8094 12.7101C33.2741 12.9992 33.7505 13.0429 35.3387 13.0374C36.7505 13.0374 36.9711 13.0211 39.0357 12.7756C40.2445 12.6392 41.2592 12.541 41.2945 12.5628C41.3298 12.5846 42.4327 13.4139 43.7386 14.4068C45.0533 15.3942 46.3944 16.3653 46.7297 16.5617C48.5826 17.6419 51.3267 18.3075 53.9031 18.3075C56.6824 18.302 59.1089 17.5492 60.803 16.1689C61.4294 15.6506 62.2059 14.6959 62.5147 14.0631C62.7794 13.5011 63 12.6173 63 12.0882C63 11.6681 62.7794 10.6424 62.647 10.4242C62.6029 10.3478 62.5941 10.2824 62.6294 10.266C62.7617 10.2169 65.7087 9.90593 66.3528 9.8732C67.7469 9.80228 68.9734 10.0969 70.0145 10.7515C70.6851 11.1716 71.2763 11.8045 71.5145 12.3609C71.691 12.7592 71.7616 13.4684 71.6645 13.8067L71.5939 14.0794L71.3204 13.7466C70.9763 13.3375 70.2175 12.8956 69.6528 12.7756C69.0087 12.6392 68.0822 12.661 67.5264 12.8192C65.197 13.4902 65.1882 15.727 67.5175 16.4471C67.9675 16.589 68.1616 16.6163 68.6822 16.6163C69.6263 16.6163 70.0851 16.4962 70.7733 16.0653C71.8498 15.3888 72.3439 14.6032 72.4145 13.4793C72.4586 12.8738 72.4321 12.6937 72.2733 12.3064C71.7616 11.0352 70.3939 10.015 68.5587 9.54041C68.0205 9.39856 67.8969 9.39311 66.7058 9.39311C65.6911 9.39311 65.1793 9.42039 64.2352 9.53495C63.5823 9.61133 62.8764 9.69316 62.6735 9.71499L62.2941 9.75318L62.0823 9.44767C61.5706 8.73299 60.5912 7.93647 59.7089 7.53276C58.5089 6.97084 57.3266 6.72534 55.8531 6.72534C54.4148 6.71988 53.2325 6.95993 52.1472 7.47821C50.7796 8.13287 50.0385 9.04941 49.8355 10.3587C49.7826 10.7243 49.7208 11.0352 49.712 11.0461C49.6943 11.0571 48.5032 11.1934 47.065 11.3517L44.4445 11.6408L43.5356 11.0789C41.3563 9.73135 39.1946 8.9403 36.6623 8.55295C35.6829 8.40565 33.1682 8.42202 31.8976 8.59114C29.4006 8.91848 27.6712 9.42039 27.2654 9.93321C27.0713 10.1787 27.0624 10.2605 27.186 10.577ZM30.8829 9.66589C31.0418 9.40402 31.58 9.09851 32.0918 8.97849C33.5123 8.65115 34.977 8.8421 36.5299 9.55678C37.7916 10.1405 40.5269 11.9299 40.3416 12.0445C40.2445 12.1045 38.6563 12.3064 37.3769 12.4155C35.9829 12.5355 34.5182 12.3773 33.2476 11.9681C32.4006 11.7008 31.2976 11.0571 30.9977 10.6697C30.7859 10.4024 30.733 9.90593 30.8829 9.66589ZM45.8562 12.0118C47.462 11.8263 49.0326 11.6572 49.4561 11.6244L49.9061 11.5862L50.1179 12.0391C50.7443 13.3866 52.1561 14.3304 53.9649 14.6195C55.0148 14.7887 56.2413 14.7068 57.1589 14.4122L57.5736 14.2758L57.1677 14.2704C55.606 14.2649 54.0619 13.7139 53.3119 12.901C52.7649 12.3009 52.3149 11.2698 52.5972 11.2698C52.6678 11.2698 53.1531 11.2207 53.6913 11.1607C56.753 10.817 61.6059 10.3369 61.7206 10.3587C61.7823 10.3751 61.95 10.5933 62.0823 10.8443C62.3117 11.2644 62.3294 11.3571 62.3294 12.2245C62.3382 13.332 62.2059 13.6757 61.4559 14.625C59.5324 17.0254 55.5884 17.8274 51.8825 16.5781C50.0208 15.9561 48.8297 15.2087 46.2974 13.1138C45.7327 12.6446 45.2209 12.2409 45.1768 12.2245C44.9739 12.1482 45.1327 12.0991 45.8562 12.0118ZM52.6766 9.90593C53.3825 8.41656 55.9942 7.43456 58.0677 7.87646C59.0648 8.09469 60.1236 8.6457 60.8912 9.34401C61.3412 9.75318 61.4029 9.85138 61.2088 9.85138C61.1206 9.85138 59.6206 10.0041 54.1325 10.5824C53.4002 10.6588 52.7208 10.7352 52.6061 10.7515C52.4031 10.7843 52.4031 10.7734 52.4561 10.5224C52.4825 10.3806 52.5884 10.1023 52.6766 9.90593Z" fill="#7D6E3A"/>
<path d="M135.944 9.79039C135.822 10.1079 135.438 10.3958 134.81 10.6505C134.359 10.8314 133.335 11.1193 132.75 11.2338C131.738 11.4294 131.409 11.4589 130.312 11.4553C129.337 11.4553 129.185 11.4442 127.759 11.2781C126.924 11.1858 126.223 11.1193 126.199 11.1341C126.174 11.1489 125.412 11.71 124.511 12.3818C123.602 13.05 122.676 13.7071 122.445 13.84C121.165 14.5709 119.269 15.0212 117.49 15.0212C115.57 15.0175 113.894 14.5081 112.724 13.5742C112.291 13.2235 111.755 12.5775 111.542 12.1493C111.359 11.769 111.207 11.171 111.207 10.8129C111.207 10.5287 111.359 9.83469 111.45 9.68703C111.481 9.63535 111.487 9.59105 111.463 9.57998C111.371 9.54675 109.336 9.33634 108.891 9.31419C107.928 9.2662 107.081 9.46554 106.362 9.90852C105.898 10.1928 105.49 10.621 105.325 10.9975C105.204 11.267 105.155 11.7469 105.222 11.9758L105.271 12.1603L105.46 11.9352C105.697 11.6583 106.221 11.3593 106.611 11.2781C107.056 11.1858 107.696 11.2005 108.08 11.3076C109.689 11.7617 109.695 13.2752 108.086 13.7624C107.775 13.8584 107.641 13.8769 107.282 13.8769C106.63 13.8769 106.313 13.7957 105.837 13.504C105.094 13.0463 104.753 12.5147 104.704 11.7543C104.673 11.3445 104.692 11.2227 104.801 10.9606C105.155 10.1005 106.099 9.41017 107.367 9.08901C107.739 8.99303 107.824 8.98934 108.647 8.98934C109.348 8.98934 109.701 9.00779 110.353 9.08532C110.804 9.137 111.292 9.19237 111.432 9.20714L111.694 9.23298L111.84 9.02625C112.194 8.54267 112.87 8.00371 113.48 7.73054C114.309 7.35031 115.125 7.1842 116.143 7.1842C117.136 7.1805 117.953 7.34293 118.703 7.69362C119.647 8.1366 120.159 8.75677 120.299 9.64273C120.336 9.89006 120.379 10.1005 120.385 10.1079C120.397 10.1152 121.22 10.2075 122.213 10.3146L124.023 10.5102L124.651 10.13C126.156 9.21821 127.649 8.68294 129.398 8.42085C130.075 8.32118 131.812 8.33225 132.689 8.44669C134.414 8.66818 135.608 9.00779 135.889 9.35479C136.023 9.52091 136.029 9.57628 135.944 9.79039ZM133.39 9.17391C133.28 8.99672 132.909 8.79 132.555 8.70878C131.574 8.48729 130.562 8.6165 129.49 9.10008C128.618 9.49507 126.729 10.7059 126.857 10.7834C126.924 10.824 128.021 10.9606 128.905 11.0344C129.867 11.1156 130.879 11.0086 131.757 10.7317C132.342 10.5508 133.104 10.1152 133.311 9.85315C133.457 9.67226 133.494 9.33634 133.39 9.17391ZM123.048 10.7613C121.939 10.6357 120.854 10.5213 120.561 10.4992L120.251 10.4733L120.104 10.7797C119.672 11.6915 118.697 12.3301 117.447 12.5258C116.722 12.6402 115.875 12.5849 115.241 12.3855L114.955 12.2932L115.235 12.2895C116.314 12.2858 117.38 11.913 117.898 11.363C118.276 10.9569 118.587 10.2592 118.392 10.2592C118.343 10.2592 118.008 10.226 117.636 10.1854C115.521 9.95282 112.169 9.62797 112.09 9.64273C112.048 9.65381 111.932 9.80147 111.84 9.97127C111.682 10.2555 111.67 10.3183 111.67 10.9052C111.664 11.6546 111.755 11.8872 112.273 12.5295C113.602 14.1537 116.326 14.6964 118.885 13.851C120.171 13.4302 120.994 12.9245 122.743 11.5069C123.133 11.1895 123.487 10.9163 123.517 10.9052C123.657 10.8535 123.548 10.8203 123.048 10.7613ZM118.337 9.33634C117.849 8.32856 116.045 7.66409 114.613 7.9631C113.925 8.11076 113.193 8.4836 112.663 8.95611C112.352 9.23298 112.31 9.29942 112.444 9.29942C112.505 9.29942 113.541 9.40278 117.331 9.79408C117.837 9.84576 118.306 9.89744 118.386 9.90852C118.526 9.93067 118.526 9.92329 118.489 9.75348C118.471 9.6575 118.398 9.46923 118.337 9.33634Z" fill="#7D6E3A"/>
<path d="M135.944 9.79039C135.822 10.1079 135.438 10.3958 134.81 10.6505C134.359 10.8314 133.335 11.1193 132.75 11.2338C131.738 11.4294 131.409 11.4589 130.312 11.4553C129.337 11.4553 129.185 11.4442 127.759 11.2781C126.924 11.1858 126.223 11.1193 126.199 11.1341C126.174 11.1489 125.412 11.71 124.511 12.3818C123.602 13.05 122.676 13.7071 122.445 13.84C121.165 14.5709 119.269 15.0212 117.49 15.0212C115.57 15.0175 113.894 14.5081 112.724 13.5742C112.291 13.2235 111.755 12.5775 111.542 12.1493C111.359 11.769 111.207 11.171 111.207 10.8129C111.207 10.5287 111.359 9.83469 111.45 9.68703C111.481 9.63535 111.487 9.59105 111.463 9.57998C111.371 9.54675 109.336 9.33634 108.891 9.31419C107.928 9.2662 107.081 9.46554 106.362 9.90852C105.898 10.1928 105.49 10.621 105.325 10.9975C105.204 11.267 105.155 11.7469 105.222 11.9758L105.271 12.1603L105.46 11.9352C105.697 11.6583 106.221 11.3593 106.611 11.2781C107.056 11.1858 107.696 11.2005 108.08 11.3076C109.689 11.7617 109.695 13.2752 108.086 13.7624C107.775 13.8584 107.641 13.8769 107.282 13.8769C106.63 13.8769 106.313 13.7957 105.837 13.504C105.094 13.0463 104.753 12.5147 104.704 11.7543C104.673 11.3445 104.692 11.2227 104.801 10.9606C105.155 10.1005 106.099 9.41017 107.367 9.08901C107.739 8.99303 107.824 8.98934 108.647 8.98934C109.348 8.98934 109.701 9.00779 110.353 9.08532C110.804 9.137 111.292 9.19237 111.432 9.20714L111.694 9.23298L111.84 9.02625C112.194 8.54267 112.87 8.00371 113.48 7.73054C114.309 7.35031 115.125 7.1842 116.143 7.1842C117.136 7.1805 117.953 7.34293 118.703 7.69362C119.647 8.1366 120.159 8.75677 120.299 9.64273C120.336 9.89006 120.379 10.1005 120.385 10.1079C120.397 10.1152 121.22 10.2075 122.213 10.3146L124.023 10.5102L124.651 10.13C126.156 9.21821 127.649 8.68294 129.398 8.42085C130.075 8.32118 131.812 8.33225 132.689 8.44669C134.414 8.66818 135.608 9.00779 135.889 9.35479C136.023 9.52091 136.029 9.57628 135.944 9.79039ZM133.39 9.17391C133.28 8.99672 132.909 8.79 132.555 8.70878C131.574 8.48729 130.562 8.6165 129.49 9.10008C128.618 9.49507 126.729 10.7059 126.857 10.7834C126.924 10.824 128.021 10.9606 128.905 11.0344C129.867 11.1156 130.879 11.0086 131.757 10.7317C132.342 10.5508 133.104 10.1152 133.311 9.85315C133.457 9.67226 133.494 9.33634 133.39 9.17391ZM123.048 10.7613C121.939 10.6357 120.854 10.5213 120.561 10.4992L120.251 10.4733L120.104 10.7797C119.672 11.6915 118.697 12.3301 117.447 12.5258C116.722 12.6402 115.875 12.5849 115.241 12.3855L114.955 12.2932L115.235 12.2895C116.314 12.2858 117.38 11.913 117.898 11.363C118.276 10.9569 118.587 10.2592 118.392 10.2592C118.343 10.2592 118.008 10.226 117.636 10.1854C115.521 9.95282 112.169 9.62797 112.09 9.64273C112.048 9.65381 111.932 9.80147 111.84 9.97127C111.682 10.2555 111.67 10.3183 111.67 10.9052C111.664 11.6546 111.755 11.8872 112.273 12.5295C113.602 14.1537 116.326 14.6964 118.885 13.851C120.171 13.4302 120.994 12.9245 122.743 11.5069C123.133 11.1895 123.487 10.9163 123.517 10.9052C123.657 10.8535 123.548 10.8203 123.048 10.7613ZM118.337 9.33634C117.849 8.32856 116.045 7.66409 114.613 7.9631C113.925 8.11076 113.193 8.4836 112.663 8.95611C112.352 9.23298 112.31 9.29942 112.444 9.29942C112.505 9.29942 113.541 9.40278 117.331 9.79408C117.837 9.84576 118.306 9.89744 118.386 9.90852C118.526 9.93067 118.526 9.92329 118.489 9.75348C118.471 9.6575 118.398 9.46923 118.337 9.33634Z" fill="#7D6E3A"/>
<path d="M0.0564575 8.49635C0.178345 8.17888 0.56229 7.89095 1.19001 7.63623C1.64099 7.45535 2.66484 7.16741 3.2499 7.05298C4.26156 6.85733 4.59066 6.8278 5.68764 6.83149C6.66274 6.83149 6.8151 6.84256 8.24118 7.00868C9.07611 7.10097 9.77696 7.16741 9.80134 7.15265C9.82571 7.13788 10.5875 6.57677 11.4895 5.90492C12.3975 5.23676 13.3239 4.57968 13.5555 4.44678C14.8353 3.71587 16.7306 3.2655 18.5102 3.2655C20.4299 3.26919 22.1058 3.77862 23.276 4.71257C23.7087 5.06326 24.245 5.70927 24.4583 6.13749C24.6411 6.51771 24.7935 7.11573 24.7935 7.47381C24.7935 7.75805 24.6411 8.45205 24.5497 8.59971C24.5192 8.65139 24.5131 8.69569 24.5375 8.70677C24.6289 8.73999 26.6644 8.95041 27.1093 8.97255C28.0722 9.02054 28.9193 8.8212 29.6385 8.37822C30.1016 8.09398 30.51 7.66577 30.6745 7.28923C30.7964 7.01975 30.8452 6.53986 30.7781 6.31099L30.7294 6.12641L30.5404 6.35159C30.3028 6.62845 29.7786 6.92747 29.3886 7.00868C28.9437 7.10097 28.3038 7.0862 27.9199 6.97915C26.3109 6.52509 26.3049 5.01158 27.9138 4.5243C28.2246 4.42832 28.3587 4.40987 28.7182 4.40987C29.3703 4.40987 29.6872 4.49108 30.1626 4.78271C30.9061 5.24045 31.2474 5.77203 31.2961 6.53248C31.3266 6.94223 31.3083 7.06405 31.1986 7.32615C30.8452 8.18627 29.9005 8.87658 28.6329 9.19774C28.2611 9.29371 28.1758 9.29741 27.3531 9.29741C26.6522 9.29741 26.2988 9.27895 25.6467 9.20143C25.1957 9.14975 24.7081 9.09437 24.568 9.07961L24.3059 9.05377L24.1596 9.26049C23.8062 9.74408 23.1297 10.283 22.5203 10.5562C21.6914 10.9364 20.8748 11.1025 19.857 11.1025C18.8636 11.1062 18.047 10.9438 17.2974 10.5931C16.3528 10.1501 15.8408 9.52997 15.7007 8.64401C15.6641 8.39668 15.6214 8.18627 15.6154 8.17888C15.6032 8.1715 14.7804 8.07921 13.787 7.97216L11.977 7.77651L11.3493 8.15673C9.844 9.06853 8.35088 9.6038 6.6018 9.8659C5.92533 9.96557 4.18843 9.95449 3.31084 9.84006C1.58614 9.61857 0.391647 9.27895 0.111307 8.93195C-0.022768 8.76583 -0.0288639 8.71046 0.0564575 8.49635ZM2.60999 9.11283C2.71969 9.29002 3.09145 9.49675 3.44492 9.57796C4.42611 9.79945 5.43778 9.67025 6.51038 9.18666C7.38188 8.79167 9.27113 7.58086 9.14314 7.50334C9.07611 7.46273 7.97912 7.32615 7.09544 7.25232C6.13253 7.1711 5.12087 7.27816 4.24328 7.55502C3.65822 7.7359 2.89643 8.1715 2.68922 8.4336C2.54296 8.61448 2.50639 8.95041 2.60999 9.11283ZM12.9521 7.52549C14.0613 7.651 15.1461 7.76544 15.4386 7.78758L15.7494 7.81343L15.8957 7.50703C16.3284 6.59523 17.3035 5.9566 18.5528 5.76095C19.2781 5.64652 20.1252 5.70189 20.759 5.90123L21.0454 5.99352L20.7651 5.99721C19.6864 6.0009 18.6199 6.37374 18.1019 6.92377C17.724 7.32984 17.4132 8.02753 17.6082 8.02753C17.657 8.02753 17.9922 8.06076 18.3639 8.10136C20.4786 8.33393 23.8305 8.65878 23.9098 8.64401C23.9524 8.63294 24.0682 8.48528 24.1596 8.31547C24.3181 8.03122 24.3303 7.96847 24.3303 7.38152C24.3364 6.63215 24.245 6.39958 23.7269 5.75726C22.3984 4.133 19.6742 3.59035 17.1146 4.43571C15.8287 4.85654 15.0059 5.36227 13.2568 6.77981C12.8668 7.09728 12.5133 7.37045 12.4829 7.38152C12.3427 7.4332 12.4524 7.46642 12.9521 7.52549ZM17.6631 8.95041C18.1506 9.95818 19.9545 10.6227 21.3867 10.3236C22.0754 10.176 22.8067 9.80314 23.3369 9.33063C23.6477 9.05377 23.6904 8.98732 23.5563 8.98732C23.4954 8.98732 22.4593 8.88396 18.6686 8.49266C18.1628 8.44098 17.6935 8.3893 17.6143 8.37822C17.4741 8.35607 17.4741 8.36346 17.5107 8.53327C17.529 8.62925 17.6021 8.81751 17.6631 8.95041Z" fill="#7D6E3A"/>
</svg>
