<svg width="34" height="32" viewBox="0 0 34 32" fill="none" xmlns="http://www.w3.org/2000/svg">
<path fill-rule="evenodd" clip-rule="evenodd" d="M22.3474 6.77606C23.1698 5.96961 22.391 4.56543 21.3904 5.05054L1.36988 14.7571C0.548719 15.1552 0.571321 16.4442 1.40429 16.7193L8.97714 19.2199C9.22619 19.3022 9.49665 19.2637 9.72542 19.1209C8.99053 18.2406 9.00805 16.6651 10.1008 15.8676L15.0166 12.28C15.6711 11.8023 16.3452 11.8268 16.8779 12.1399L22.3474 6.77606Z" fill="#7D6E3A"/>
<path d="M24.407 5.89943C24.4426 4.89156 23.2387 4.35681 22.6708 5.12817L11.6756 20.0606C11.36 20.4892 11.4385 21.1307 11.8522 21.5039L21.9979 30.6571C22.6183 31.2168 23.528 30.8247 23.5576 29.985L24.407 5.89943Z" fill="#7D6E3A"/>
</svg>
