<svg width="27" height="27" viewBox="0 0 27 27" fill="none" xmlns="http://www.w3.org/2000/svg">
<path fill-rule="evenodd" clip-rule="evenodd" d="M19.393 11.9473C19.865 11.9473 20.2513 11.5576 20.1824 11.0907C19.9416 9.45925 19.124 8.28784 18.1744 7.63278C17.6301 7.33046 17.0217 7.16136 16.3796 7.16136C16.3718 7.16136 16.3641 7.16139 16.3564 7.16144C15.9428 7.16406 15.651 7.53212 15.651 7.94568V8.58685C15.651 8.93621 16.0302 9.16136 16.3796 9.16136C17.1399 9.16136 18.1338 9.83399 18.4666 11.1417C18.5786 11.582 18.9387 11.9473 19.393 11.9473Z" fill="#7D6E3A"/>
<path fill-rule="evenodd" clip-rule="evenodd" d="M22.3569 12.0211C22.9213 12.0218 23.3811 11.5546 23.3025 10.9958C22.7599 7.13907 19.7529 4.18645 16.1209 4.18216C15.9594 4.18197 15.7991 4.18761 15.6402 4.1989C15.1833 4.23139 14.8579 4.63247 14.8574 5.09053C14.8566 5.72671 15.4822 6.1814 16.1184 6.18216C18.5254 6.185 20.7944 8.15057 21.29 11.0546C21.381 11.588 21.8157 12.0205 22.3569 12.0211Z" fill="#7D6E3A"/>
<rect x="1.12036" y="1.21057" width="24.8797" height="24.1053" rx="9" stroke="#7D6E3A" stroke-width="2"/>
<path fill-rule="evenodd" clip-rule="evenodd" d="M5.86807 6.73692C6.37342 6.0143 7.34102 5.8085 8.20108 6.06419V6.06419C8.58147 6.17727 8.92748 6.37927 9.20877 6.65246L9.25386 6.69624C10.1808 7.59648 10.2245 9.00509 9.88905 10.2358C9.46081 11.8068 9.77301 13.4585 11.0677 14.7247C12.3265 15.9557 14.0828 16.4048 15.7702 16.1639C17.2402 15.954 18.8793 16.0443 19.9299 17.0647L19.9857 17.1189C20.2589 17.3842 20.4731 17.7014 20.6147 18.0505V18.0505C21.026 19.0641 20.8104 20.2814 19.8211 20.795C18.0496 21.7147 15.8609 21.631 13.5687 19.7611C10.7673 17.4757 8.60782 15.4251 6.38229 12.8588C4.4004 10.5734 4.67808 8.43856 5.86807 6.73692Z" fill="#7D6E3A"/>
<path d="M11.0677 14.7247L11.7876 14.0304L11.7876 14.0304L11.0677 14.7247ZM13.5687 19.7611L14.2213 19.0066L14.2213 19.0066L13.5687 19.7611ZM6.38229 12.8588L7.15825 12.2241L6.38229 12.8588ZM9.97122 5.99955L9.92614 5.95576L8.49141 7.34915L8.53649 7.39294L9.97122 5.99955ZM11.7876 14.0304C10.7787 13.0438 10.5214 11.7659 10.8698 10.488L8.90833 9.98365C8.4002 11.8476 8.76733 13.8732 10.3479 15.4189L11.7876 14.0304ZM15.6226 15.1891C14.2091 15.3909 12.7893 15.01 11.7876 14.0304L10.3479 15.4189C11.8637 16.9013 13.9566 17.4187 15.9177 17.1387L15.6226 15.1891ZM20.7031 16.4222L20.6473 16.368L19.2125 17.7614L19.2683 17.8156L20.7031 16.4222ZM12.9162 20.5155C14.1788 21.5455 15.4723 22.1308 16.7531 22.3004C18.0388 22.4706 19.2429 22.2124 20.2993 21.664L19.3428 19.9261C18.6278 20.2973 17.8517 20.4571 17.0272 20.3479C16.1977 20.2381 15.2508 19.8465 14.2213 19.0066L12.9162 20.5155ZM5.60632 13.4935C7.87463 16.1091 10.0769 18.1992 12.9162 20.5155L14.2213 19.0066C11.4578 16.7522 9.34101 14.7411 7.15825 12.2241L5.60632 13.4935ZM5.02882 6.18335C4.34467 7.16167 3.88477 8.32054 3.92161 9.60635C3.95867 10.9002 4.49571 12.2128 5.60632 13.4935L7.15825 12.2241C6.28697 11.2194 5.97191 10.3219 5.94984 9.55155C5.92754 8.77318 6.20149 8.01381 6.70732 7.2905L5.02882 6.18335ZM19.6709 18.4117C19.9705 19.1503 19.7137 19.7335 19.3428 19.9261L20.2993 21.664C21.9071 20.8293 22.0815 18.978 21.5586 17.6893L19.6709 18.4117ZM15.9177 17.1387C17.3191 16.9386 18.5214 17.0902 19.2125 17.7614L20.6473 16.368C19.2371 14.9984 17.1613 14.9694 15.6226 15.1891L15.9177 17.1387ZM8.53649 7.39294C9.08035 7.92113 9.20937 8.87931 8.90833 9.98365L10.8698 10.488C11.2397 9.13087 11.2812 7.27183 9.97122 5.99955L8.53649 7.39294ZM8.49803 5.12206C7.33211 4.77544 5.84801 5.01195 5.02882 6.18335L6.70732 7.2905C6.89883 7.01664 7.34993 6.84155 7.90413 7.00631L8.49803 5.12206ZM19.2683 17.8156C19.4432 17.9854 19.5802 18.1883 19.6709 18.4117L21.5586 17.6893C21.3659 17.2144 21.0747 16.7831 20.7031 16.4222L19.2683 17.8156ZM7.90413 7.00631C8.12582 7.07222 8.32747 7.18994 8.49141 7.34915L9.92614 5.95576C9.52749 5.56859 9.03712 5.28233 8.49803 5.12206L7.90413 7.00631Z" fill="#7D6E3A"/>
</svg>
